<?xml version="1.0" encoding="utf-8" standalone="no"?>
<!DOCTYPE svg PUBLIC "-//W3C//DTD SVG 1.1//EN"
  "http://www.w3.org/Graphics/SVG/1.1/DTD/svg11.dtd">
<svg xmlns:xlink="http://www.w3.org/1999/xlink" width="601.326563pt" height="281.634375pt" viewBox="0 0 601.326563 281.634375" xmlns="http://www.w3.org/2000/svg" version="1.1">
 <metadata>
  <rdf:RDF xmlns:dc="http://purl.org/dc/elements/1.1/" xmlns:cc="http://creativecommons.org/ns#" xmlns:rdf="http://www.w3.org/1999/02/22-rdf-syntax-ns#">
   <cc:Work>
    <dc:type rdf:resource="http://purl.org/dc/dcmitype/StillImage"/>
    <dc:date>2026-06-03T15:50:23.361798</dc:date>
    <dc:format>image/svg+xml</dc:format>
    <dc:creator>
     <cc:Agent>
      <dc:title>Matplotlib v3.10.9, https://matplotlib.org/</dc:title>
     </cc:Agent>
    </dc:creator>
   </cc:Work>
  </rdf:RDF>
 </metadata>
 <defs>
  <style type="text/css">*{stroke-linejoin: round; stroke-linecap: butt}</style>
 </defs>
 <g id="figure_1">
  <g id="patch_1">
   <path d="M 0 281.634375 
L 601.326563 281.634375 
L 601.326563 0 
L 0 0 
z
" style="fill: #ffffff"/>
  </g>
  <g id="axes_1">
   <g id="patch_2">
    <path d="M 48.982812 244.078125 
L 551.182813 244.078125 
L 551.182813 22.318125 
L 48.982812 22.318125 
z
" style="fill: #ffffff"/>
   </g>
   <g id="matplotlib.axis_1">
    <g id="xtick_1">
     <g id="line2d_1">
      <path d="M 71.810085 244.078125 
L 71.810085 22.318125 
" clip-path="url(#pe110815ea9)" style="fill: none; stroke: #b0b0b0; stroke-width: 0.8; stroke-linecap: square"/>
     </g>
     <g id="line2d_2">
      <defs>
       <path id="m43c4dd6a96" d="M 0 0 
L 0 3.5 
" style="stroke: #000000; stroke-width: 0.8"/>
      </defs>
      <g>
       <use xlink:href="#m43c4dd6a96" x="71.810085" y="244.078125" style="stroke: #000000; stroke-width: 0.8"/>
      </g>
     </g>
     <g id="text_1">
      <!-- 2018-01 -->
      <g transform="translate(50.918679 258.676562) scale(0.1 -0.1)">
       <defs>
        <path id="DejaVuSans-32" d="M 1228 531 
L 3431 531 
L 3431 0 
L 469 0 
L 469 531 
Q 828 903 1448 1529 
Q 2069 2156 2228 2338 
Q 2531 2678 2651 2914 
Q 2772 3150 2772 3378 
Q 2772 3750 2511 3984 
Q 2250 4219 1831 4219 
Q 1534 4219 1204 4116 
Q 875 4013 500 3803 
L 500 4441 
Q 881 4594 1212 4672 
Q 1544 4750 1819 4750 
Q 2544 4750 2975 4387 
Q 3406 4025 3406 3419 
Q 3406 3131 3298 2873 
Q 3191 2616 2906 2266 
Q 2828 2175 2409 1742 
Q 1991 1309 1228 531 
z
" transform="scale(0.015625)"/>
        <path id="DejaVuSans-30" d="M 2034 4250 
Q 1547 4250 1301 3770 
Q 1056 3291 1056 2328 
Q 1056 1369 1301 889 
Q 1547 409 2034 409 
Q 2525 409 2770 889 
Q 3016 1369 3016 2328 
Q 3016 3291 2770 3770 
Q 2525 4250 2034 4250 
z
M 2034 4750 
Q 2819 4750 3233 4129 
Q 3647 3509 3647 2328 
Q 3647 1150 3233 529 
Q 2819 -91 2034 -91 
Q 1250 -91 836 529 
Q 422 1150 422 2328 
Q 422 3509 836 4129 
Q 1250 4750 2034 4750 
z
" transform="scale(0.015625)"/>
        <path id="DejaVuSans-31" d="M 794 531 
L 1825 531 
L 1825 4091 
L 703 3866 
L 703 4441 
L 1819 4666 
L 2450 4666 
L 2450 531 
L 3481 531 
L 3481 0 
L 794 0 
L 794 531 
z
" transform="scale(0.015625)"/>
        <path id="DejaVuSans-38" d="M 2034 2216 
Q 1584 2216 1326 1975 
Q 1069 1734 1069 1313 
Q 1069 891 1326 650 
Q 1584 409 2034 409 
Q 2484 409 2743 651 
Q 3003 894 3003 1313 
Q 3003 1734 2745 1975 
Q 2488 2216 2034 2216 
z
M 1403 2484 
Q 997 2584 770 2862 
Q 544 3141 544 3541 
Q 544 4100 942 4425 
Q 1341 4750 2034 4750 
Q 2731 4750 3128 4425 
Q 3525 4100 3525 3541 
Q 3525 3141 3298 2862 
Q 3072 2584 2669 2484 
Q 3125 2378 3379 2068 
Q 3634 1759 3634 1313 
Q 3634 634 3220 271 
Q 2806 -91 2034 -91 
Q 1263 -91 848 271 
Q 434 634 434 1313 
Q 434 1759 690 2068 
Q 947 2378 1403 2484 
z
M 1172 3481 
Q 1172 3119 1398 2916 
Q 1625 2713 2034 2713 
Q 2441 2713 2670 2916 
Q 2900 3119 2900 3481 
Q 2900 3844 2670 4047 
Q 2441 4250 2034 4250 
Q 1625 4250 1398 4047 
Q 1172 3844 1172 3481 
z
" transform="scale(0.015625)"/>
        <path id="DejaVuSans-2d" d="M 313 2009 
L 1997 2009 
L 1997 1497 
L 313 1497 
L 313 2009 
z
" transform="scale(0.015625)"/>
       </defs>
       <use xlink:href="#DejaVuSans-32"/>
       <use xlink:href="#DejaVuSans-30" transform="translate(63.623047 0)"/>
       <use xlink:href="#DejaVuSans-31" transform="translate(127.246094 0)"/>
       <use xlink:href="#DejaVuSans-38" transform="translate(190.869141 0)"/>
       <use xlink:href="#DejaVuSans-2d" transform="translate(254.492188 0)"/>
       <use xlink:href="#DejaVuSans-30" transform="translate(290.576172 0)"/>
       <use xlink:href="#DejaVuSans-31" transform="translate(354.199219 0)"/>
      </g>
     </g>
    </g>
    <g id="xtick_2">
     <g id="line2d_3">
      <path d="M 145.810585 244.078125 
L 145.810585 22.318125 
" clip-path="url(#pe110815ea9)" style="fill: none; stroke: #b0b0b0; stroke-width: 0.8; stroke-linecap: square"/>
     </g>
     <g id="line2d_4">
      <g>
       <use xlink:href="#m43c4dd6a96" x="145.810585" y="244.078125" style="stroke: #000000; stroke-width: 0.8"/>
      </g>
     </g>
     <g id="text_2">
      <!-- 2018-03 -->
      <g transform="translate(124.919178 258.676562) scale(0.1 -0.1)">
       <defs>
        <path id="DejaVuSans-33" d="M 2597 2516 
Q 3050 2419 3304 2112 
Q 3559 1806 3559 1356 
Q 3559 666 3084 287 
Q 2609 -91 1734 -91 
Q 1441 -91 1130 -33 
Q 819 25 488 141 
L 488 750 
Q 750 597 1062 519 
Q 1375 441 1716 441 
Q 2309 441 2620 675 
Q 2931 909 2931 1356 
Q 2931 1769 2642 2001 
Q 2353 2234 1838 2234 
L 1294 2234 
L 1294 2753 
L 1863 2753 
Q 2328 2753 2575 2939 
Q 2822 3125 2822 3475 
Q 2822 3834 2567 4026 
Q 2313 4219 1838 4219 
Q 1578 4219 1281 4162 
Q 984 4106 628 3988 
L 628 4550 
Q 988 4650 1302 4700 
Q 1616 4750 1894 4750 
Q 2613 4750 3031 4423 
Q 3450 4097 3450 3541 
Q 3450 3153 3228 2886 
Q 3006 2619 2597 2516 
z
" transform="scale(0.015625)"/>
       </defs>
       <use xlink:href="#DejaVuSans-32"/>
       <use xlink:href="#DejaVuSans-30" transform="translate(63.623047 0)"/>
       <use xlink:href="#DejaVuSans-31" transform="translate(127.246094 0)"/>
       <use xlink:href="#DejaVuSans-38" transform="translate(190.869141 0)"/>
       <use xlink:href="#DejaVuSans-2d" transform="translate(254.492188 0)"/>
       <use xlink:href="#DejaVuSans-30" transform="translate(290.576172 0)"/>
       <use xlink:href="#DejaVuSans-33" transform="translate(354.199219 0)"/>
      </g>
     </g>
    </g>
    <g id="xtick_3">
     <g id="line2d_5">
      <path d="M 222.319576 244.078125 
L 222.319576 22.318125 
" clip-path="url(#pe110815ea9)" style="fill: none; stroke: #b0b0b0; stroke-width: 0.8; stroke-linecap: square"/>
     </g>
     <g id="line2d_6">
      <g>
       <use xlink:href="#m43c4dd6a96" x="222.319576" y="244.078125" style="stroke: #000000; stroke-width: 0.8"/>
      </g>
     </g>
     <g id="text_3">
      <!-- 2018-05 -->
      <g transform="translate(201.428169 258.676562) scale(0.1 -0.1)">
       <defs>
        <path id="DejaVuSans-35" d="M 691 4666 
L 3169 4666 
L 3169 4134 
L 1269 4134 
L 1269 2991 
Q 1406 3038 1543 3061 
Q 1681 3084 1819 3084 
Q 2600 3084 3056 2656 
Q 3513 2228 3513 1497 
Q 3513 744 3044 326 
Q 2575 -91 1722 -91 
Q 1428 -91 1123 -41 
Q 819 9 494 109 
L 494 744 
Q 775 591 1075 516 
Q 1375 441 1709 441 
Q 2250 441 2565 725 
Q 2881 1009 2881 1497 
Q 2881 1984 2565 2268 
Q 2250 2553 1709 2553 
Q 1456 2553 1204 2497 
Q 953 2441 691 2322 
L 691 4666 
z
" transform="scale(0.015625)"/>
       </defs>
       <use xlink:href="#DejaVuSans-32"/>
       <use xlink:href="#DejaVuSans-30" transform="translate(63.623047 0)"/>
       <use xlink:href="#DejaVuSans-31" transform="translate(127.246094 0)"/>
       <use xlink:href="#DejaVuSans-38" transform="translate(190.869141 0)"/>
       <use xlink:href="#DejaVuSans-2d" transform="translate(254.492188 0)"/>
       <use xlink:href="#DejaVuSans-30" transform="translate(290.576172 0)"/>
       <use xlink:href="#DejaVuSans-35" transform="translate(354.199219 0)"/>
      </g>
     </g>
    </g>
    <g id="xtick_4">
     <g id="line2d_7">
      <path d="M 298.828567 244.078125 
L 298.828567 22.318125 
" clip-path="url(#pe110815ea9)" style="fill: none; stroke: #b0b0b0; stroke-width: 0.8; stroke-linecap: square"/>
     </g>
     <g id="line2d_8">
      <g>
       <use xlink:href="#m43c4dd6a96" x="298.828567" y="244.078125" style="stroke: #000000; stroke-width: 0.8"/>
      </g>
     </g>
     <g id="text_4">
      <!-- 2018-07 -->
      <g transform="translate(277.93716 258.676562) scale(0.1 -0.1)">
       <defs>
        <path id="DejaVuSans-37" d="M 525 4666 
L 3525 4666 
L 3525 4397 
L 1831 0 
L 1172 0 
L 2766 4134 
L 525 4134 
L 525 4666 
z
" transform="scale(0.015625)"/>
       </defs>
       <use xlink:href="#DejaVuSans-32"/>
       <use xlink:href="#DejaVuSans-30" transform="translate(63.623047 0)"/>
       <use xlink:href="#DejaVuSans-31" transform="translate(127.246094 0)"/>
       <use xlink:href="#DejaVuSans-38" transform="translate(190.869141 0)"/>
       <use xlink:href="#DejaVuSans-2d" transform="translate(254.492188 0)"/>
       <use xlink:href="#DejaVuSans-30" transform="translate(290.576172 0)"/>
       <use xlink:href="#DejaVuSans-37" transform="translate(354.199219 0)"/>
      </g>
     </g>
    </g>
    <g id="xtick_5">
     <g id="line2d_9">
      <path d="M 376.591804 244.078125 
L 376.591804 22.318125 
" clip-path="url(#pe110815ea9)" style="fill: none; stroke: #b0b0b0; stroke-width: 0.8; stroke-linecap: square"/>
     </g>
     <g id="line2d_10">
      <g>
       <use xlink:href="#m43c4dd6a96" x="376.591804" y="244.078125" style="stroke: #000000; stroke-width: 0.8"/>
      </g>
     </g>
     <g id="text_5">
      <!-- 2018-09 -->
      <g transform="translate(355.700397 258.676562) scale(0.1 -0.1)">
       <defs>
        <path id="DejaVuSans-39" d="M 703 97 
L 703 672 
Q 941 559 1184 500 
Q 1428 441 1663 441 
Q 2288 441 2617 861 
Q 2947 1281 2994 2138 
Q 2813 1869 2534 1725 
Q 2256 1581 1919 1581 
Q 1219 1581 811 2004 
Q 403 2428 403 3163 
Q 403 3881 828 4315 
Q 1253 4750 1959 4750 
Q 2769 4750 3195 4129 
Q 3622 3509 3622 2328 
Q 3622 1225 3098 567 
Q 2575 -91 1691 -91 
Q 1453 -91 1209 -44 
Q 966 3 703 97 
z
M 1959 2075 
Q 2384 2075 2632 2365 
Q 2881 2656 2881 3163 
Q 2881 3666 2632 3958 
Q 2384 4250 1959 4250 
Q 1534 4250 1286 3958 
Q 1038 3666 1038 3163 
Q 1038 2656 1286 2365 
Q 1534 2075 1959 2075 
z
" transform="scale(0.015625)"/>
       </defs>
       <use xlink:href="#DejaVuSans-32"/>
       <use xlink:href="#DejaVuSans-30" transform="translate(63.623047 0)"/>
       <use xlink:href="#DejaVuSans-31" transform="translate(127.246094 0)"/>
       <use xlink:href="#DejaVuSans-38" transform="translate(190.869141 0)"/>
       <use xlink:href="#DejaVuSans-2d" transform="translate(254.492188 0)"/>
       <use xlink:href="#DejaVuSans-30" transform="translate(290.576172 0)"/>
       <use xlink:href="#DejaVuSans-39" transform="translate(354.199219 0)"/>
      </g>
     </g>
    </g>
    <g id="xtick_6">
     <g id="line2d_11">
      <path d="M 453.100795 244.078125 
L 453.100795 22.318125 
" clip-path="url(#pe110815ea9)" style="fill: none; stroke: #b0b0b0; stroke-width: 0.8; stroke-linecap: square"/>
     </g>
     <g id="line2d_12">
      <g>
       <use xlink:href="#m43c4dd6a96" x="453.100795" y="244.078125" style="stroke: #000000; stroke-width: 0.8"/>
      </g>
     </g>
     <g id="text_6">
      <!-- 2018-11 -->
      <g transform="translate(432.209388 258.676562) scale(0.1 -0.1)">
       <use xlink:href="#DejaVuSans-32"/>
       <use xlink:href="#DejaVuSans-30" transform="translate(63.623047 0)"/>
       <use xlink:href="#DejaVuSans-31" transform="translate(127.246094 0)"/>
       <use xlink:href="#DejaVuSans-38" transform="translate(190.869141 0)"/>
       <use xlink:href="#DejaVuSans-2d" transform="translate(254.492188 0)"/>
       <use xlink:href="#DejaVuSans-31" transform="translate(290.576172 0)"/>
       <use xlink:href="#DejaVuSans-31" transform="translate(354.199219 0)"/>
      </g>
     </g>
    </g>
    <g id="xtick_7">
     <g id="line2d_13">
      <path d="M 529.609786 244.078125 
L 529.609786 22.318125 
" clip-path="url(#pe110815ea9)" style="fill: none; stroke: #b0b0b0; stroke-width: 0.8; stroke-linecap: square"/>
     </g>
     <g id="line2d_14">
      <g>
       <use xlink:href="#m43c4dd6a96" x="529.609786" y="244.078125" style="stroke: #000000; stroke-width: 0.8"/>
      </g>
     </g>
     <g id="text_7">
      <!-- 2019-01 -->
      <g transform="translate(508.718379 258.676562) scale(0.1 -0.1)">
       <use xlink:href="#DejaVuSans-32"/>
       <use xlink:href="#DejaVuSans-30" transform="translate(63.623047 0)"/>
       <use xlink:href="#DejaVuSans-31" transform="translate(127.246094 0)"/>
       <use xlink:href="#DejaVuSans-39" transform="translate(190.869141 0)"/>
       <use xlink:href="#DejaVuSans-2d" transform="translate(254.492188 0)"/>
       <use xlink:href="#DejaVuSans-30" transform="translate(290.576172 0)"/>
       <use xlink:href="#DejaVuSans-31" transform="translate(354.199219 0)"/>
      </g>
     </g>
    </g>
    <g id="text_8">
     <!-- 2018 -->
     <g transform="translate(287.357813 272.354687) scale(0.1 -0.1)">
      <use xlink:href="#DejaVuSans-32"/>
      <use xlink:href="#DejaVuSans-30" transform="translate(63.623047 0)"/>
      <use xlink:href="#DejaVuSans-31" transform="translate(127.246094 0)"/>
      <use xlink:href="#DejaVuSans-38" transform="translate(190.869141 0)"/>
     </g>
    </g>
   </g>
   <g id="matplotlib.axis_2">
    <g id="ytick_1">
     <g id="line2d_15">
      <path d="M 48.982812 239.087905 
L 551.182813 239.087905 
" clip-path="url(#pe110815ea9)" style="fill: none; stroke: #b0b0b0; stroke-width: 0.8; stroke-linecap: square"/>
     </g>
     <g id="line2d_16">
      <defs>
       <path id="mb862ffbc2a" d="M 0 0 
L -3.5 0 
" style="stroke: #000000; stroke-width: 0.8"/>
      </defs>
      <g>
       <use xlink:href="#mb862ffbc2a" x="48.982812" y="239.087905" style="stroke: #000000; stroke-width: 0.8"/>
      </g>
     </g>
     <g id="text_9">
      <!-- −15 -->
      <g style="fill: #d62728" transform="translate(20.878125 242.887123) scale(0.1 -0.1)">
       <defs>
        <path id="DejaVuSans-2212" d="M 678 2272 
L 4684 2272 
L 4684 1741 
L 678 1741 
L 678 2272 
z
" transform="scale(0.015625)"/>
       </defs>
       <use xlink:href="#DejaVuSans-2212"/>
       <use xlink:href="#DejaVuSans-31" transform="translate(83.789062 0)"/>
       <use xlink:href="#DejaVuSans-35" transform="translate(147.412109 0)"/>
      </g>
     </g>
    </g>
    <g id="ytick_2">
     <g id="line2d_17">
      <path d="M 48.982812 213.532525 
L 551.182813 213.532525 
" clip-path="url(#pe110815ea9)" style="fill: none; stroke: #b0b0b0; stroke-width: 0.8; stroke-linecap: square"/>
     </g>
     <g id="line2d_18">
      <g>
       <use xlink:href="#mb862ffbc2a" x="48.982812" y="213.532525" style="stroke: #000000; stroke-width: 0.8"/>
      </g>
     </g>
     <g id="text_10">
      <!-- −10 -->
      <g style="fill: #d62728" transform="translate(20.878125 217.331744) scale(0.1 -0.1)">
       <use xlink:href="#DejaVuSans-2212"/>
       <use xlink:href="#DejaVuSans-31" transform="translate(83.789062 0)"/>
       <use xlink:href="#DejaVuSans-30" transform="translate(147.412109 0)"/>
      </g>
     </g>
    </g>
    <g id="ytick_3">
     <g id="line2d_19">
      <path d="M 48.982812 187.977146 
L 551.182813 187.977146 
" clip-path="url(#pe110815ea9)" style="fill: none; stroke: #b0b0b0; stroke-width: 0.8; stroke-linecap: square"/>
     </g>
     <g id="line2d_20">
      <g>
       <use xlink:href="#mb862ffbc2a" x="48.982812" y="187.977146" style="stroke: #000000; stroke-width: 0.8"/>
      </g>
     </g>
     <g id="text_11">
      <!-- −5 -->
      <g style="fill: #d62728" transform="translate(27.240625 191.776365) scale(0.1 -0.1)">
       <use xlink:href="#DejaVuSans-2212"/>
       <use xlink:href="#DejaVuSans-35" transform="translate(83.789062 0)"/>
      </g>
     </g>
    </g>
    <g id="ytick_4">
     <g id="line2d_21">
      <path d="M 48.982812 162.421766 
L 551.182813 162.421766 
" clip-path="url(#pe110815ea9)" style="fill: none; stroke: #b0b0b0; stroke-width: 0.8; stroke-linecap: square"/>
     </g>
     <g id="line2d_22">
      <g>
       <use xlink:href="#mb862ffbc2a" x="48.982812" y="162.421766" style="stroke: #000000; stroke-width: 0.8"/>
      </g>
     </g>
     <g id="text_12">
      <!-- 0 -->
      <g style="fill: #d62728" transform="translate(35.620312 166.220985) scale(0.1 -0.1)">
       <use xlink:href="#DejaVuSans-30"/>
      </g>
     </g>
    </g>
    <g id="ytick_5">
     <g id="line2d_23">
      <path d="M 48.982812 136.866387 
L 551.182813 136.866387 
" clip-path="url(#pe110815ea9)" style="fill: none; stroke: #b0b0b0; stroke-width: 0.8; stroke-linecap: square"/>
     </g>
     <g id="line2d_24">
      <g>
       <use xlink:href="#mb862ffbc2a" x="48.982812" y="136.866387" style="stroke: #000000; stroke-width: 0.8"/>
      </g>
     </g>
     <g id="text_13">
      <!-- 5 -->
      <g style="fill: #d62728" transform="translate(35.620312 140.665606) scale(0.1 -0.1)">
       <use xlink:href="#DejaVuSans-35"/>
      </g>
     </g>
    </g>
    <g id="ytick_6">
     <g id="line2d_25">
      <path d="M 48.982812 111.311007 
L 551.182813 111.311007 
" clip-path="url(#pe110815ea9)" style="fill: none; stroke: #b0b0b0; stroke-width: 0.8; stroke-linecap: square"/>
     </g>
     <g id="line2d_26">
      <g>
       <use xlink:href="#mb862ffbc2a" x="48.982812" y="111.311007" style="stroke: #000000; stroke-width: 0.8"/>
      </g>
     </g>
     <g id="text_14">
      <!-- 10 -->
      <g style="fill: #d62728" transform="translate(29.257812 115.110226) scale(0.1 -0.1)">
       <use xlink:href="#DejaVuSans-31"/>
       <use xlink:href="#DejaVuSans-30" transform="translate(63.623047 0)"/>
      </g>
     </g>
    </g>
    <g id="ytick_7">
     <g id="line2d_27">
      <path d="M 48.982812 85.755628 
L 551.182813 85.755628 
" clip-path="url(#pe110815ea9)" style="fill: none; stroke: #b0b0b0; stroke-width: 0.8; stroke-linecap: square"/>
     </g>
     <g id="line2d_28">
      <g>
       <use xlink:href="#mb862ffbc2a" x="48.982812" y="85.755628" style="stroke: #000000; stroke-width: 0.8"/>
      </g>
     </g>
     <g id="text_15">
      <!-- 15 -->
      <g style="fill: #d62728" transform="translate(29.257812 89.554847) scale(0.1 -0.1)">
       <use xlink:href="#DejaVuSans-31"/>
       <use xlink:href="#DejaVuSans-35" transform="translate(63.623047 0)"/>
      </g>
     </g>
    </g>
    <g id="ytick_8">
     <g id="line2d_29">
      <path d="M 48.982812 60.200248 
L 551.182813 60.200248 
" clip-path="url(#pe110815ea9)" style="fill: none; stroke: #b0b0b0; stroke-width: 0.8; stroke-linecap: square"/>
     </g>
     <g id="line2d_30">
      <g>
       <use xlink:href="#mb862ffbc2a" x="48.982812" y="60.200248" style="stroke: #000000; stroke-width: 0.8"/>
      </g>
     </g>
     <g id="text_16">
      <!-- 20 -->
      <g style="fill: #d62728" transform="translate(29.257812 63.999467) scale(0.1 -0.1)">
       <use xlink:href="#DejaVuSans-32"/>
       <use xlink:href="#DejaVuSans-30" transform="translate(63.623047 0)"/>
      </g>
     </g>
    </g>
    <g id="ytick_9">
     <g id="line2d_31">
      <path d="M 48.982812 34.644869 
L 551.182813 34.644869 
" clip-path="url(#pe110815ea9)" style="fill: none; stroke: #b0b0b0; stroke-width: 0.8; stroke-linecap: square"/>
     </g>
     <g id="line2d_32">
      <g>
       <use xlink:href="#mb862ffbc2a" x="48.982812" y="34.644869" style="stroke: #000000; stroke-width: 0.8"/>
      </g>
     </g>
     <g id="text_17">
      <!-- 25 -->
      <g style="fill: #d62728" transform="translate(29.257812 38.444088) scale(0.1 -0.1)">
       <use xlink:href="#DejaVuSans-32"/>
       <use xlink:href="#DejaVuSans-35" transform="translate(63.623047 0)"/>
      </g>
     </g>
    </g>
    <g id="text_18">
     <!-- Temperature [°C] -->
     <g style="fill: #d62728" transform="translate(14.798437 176.349687) rotate(-90) scale(0.1 -0.1)">
      <defs>
       <path id="DejaVuSans-54" d="M -19 4666 
L 3928 4666 
L 3928 4134 
L 2272 4134 
L 2272 0 
L 1638 0 
L 1638 4134 
L -19 4134 
L -19 4666 
z
" transform="scale(0.015625)"/>
       <path id="DejaVuSans-65" d="M 3597 1894 
L 3597 1613 
L 953 1613 
Q 991 1019 1311 708 
Q 1631 397 2203 397 
Q 2534 397 2845 478 
Q 3156 559 3463 722 
L 3463 178 
Q 3153 47 2828 -22 
Q 2503 -91 2169 -91 
Q 1331 -91 842 396 
Q 353 884 353 1716 
Q 353 2575 817 3079 
Q 1281 3584 2069 3584 
Q 2775 3584 3186 3129 
Q 3597 2675 3597 1894 
z
M 3022 2063 
Q 3016 2534 2758 2815 
Q 2500 3097 2075 3097 
Q 1594 3097 1305 2825 
Q 1016 2553 972 2059 
L 3022 2063 
z
" transform="scale(0.015625)"/>
       <path id="DejaVuSans-6d" d="M 3328 2828 
Q 3544 3216 3844 3400 
Q 4144 3584 4550 3584 
Q 5097 3584 5394 3201 
Q 5691 2819 5691 2113 
L 5691 0 
L 5113 0 
L 5113 2094 
Q 5113 2597 4934 2840 
Q 4756 3084 4391 3084 
Q 3944 3084 3684 2787 
Q 3425 2491 3425 1978 
L 3425 0 
L 2847 0 
L 2847 2094 
Q 2847 2600 2669 2842 
Q 2491 3084 2119 3084 
Q 1678 3084 1418 2786 
Q 1159 2488 1159 1978 
L 1159 0 
L 581 0 
L 581 3500 
L 1159 3500 
L 1159 2956 
Q 1356 3278 1631 3431 
Q 1906 3584 2284 3584 
Q 2666 3584 2933 3390 
Q 3200 3197 3328 2828 
z
" transform="scale(0.015625)"/>
       <path id="DejaVuSans-70" d="M 1159 525 
L 1159 -1331 
L 581 -1331 
L 581 3500 
L 1159 3500 
L 1159 2969 
Q 1341 3281 1617 3432 
Q 1894 3584 2278 3584 
Q 2916 3584 3314 3078 
Q 3713 2572 3713 1747 
Q 3713 922 3314 415 
Q 2916 -91 2278 -91 
Q 1894 -91 1617 61 
Q 1341 213 1159 525 
z
M 3116 1747 
Q 3116 2381 2855 2742 
Q 2594 3103 2138 3103 
Q 1681 3103 1420 2742 
Q 1159 2381 1159 1747 
Q 1159 1113 1420 752 
Q 1681 391 2138 391 
Q 2594 391 2855 752 
Q 3116 1113 3116 1747 
z
" transform="scale(0.015625)"/>
       <path id="DejaVuSans-72" d="M 2631 2963 
Q 2534 3019 2420 3045 
Q 2306 3072 2169 3072 
Q 1681 3072 1420 2755 
Q 1159 2438 1159 1844 
L 1159 0 
L 581 0 
L 581 3500 
L 1159 3500 
L 1159 2956 
Q 1341 3275 1631 3429 
Q 1922 3584 2338 3584 
Q 2397 3584 2469 3576 
Q 2541 3569 2628 3553 
L 2631 2963 
z
" transform="scale(0.015625)"/>
       <path id="DejaVuSans-61" d="M 2194 1759 
Q 1497 1759 1228 1600 
Q 959 1441 959 1056 
Q 959 750 1161 570 
Q 1363 391 1709 391 
Q 2188 391 2477 730 
Q 2766 1069 2766 1631 
L 2766 1759 
L 2194 1759 
z
M 3341 1997 
L 3341 0 
L 2766 0 
L 2766 531 
Q 2569 213 2275 61 
Q 1981 -91 1556 -91 
Q 1019 -91 701 211 
Q 384 513 384 1019 
Q 384 1609 779 1909 
Q 1175 2209 1959 2209 
L 2766 2209 
L 2766 2266 
Q 2766 2663 2505 2880 
Q 2244 3097 1772 3097 
Q 1472 3097 1187 3025 
Q 903 2953 641 2809 
L 641 3341 
Q 956 3463 1253 3523 
Q 1550 3584 1831 3584 
Q 2591 3584 2966 3190 
Q 3341 2797 3341 1997 
z
" transform="scale(0.015625)"/>
       <path id="DejaVuSans-74" d="M 1172 4494 
L 1172 3500 
L 2356 3500 
L 2356 3053 
L 1172 3053 
L 1172 1153 
Q 1172 725 1289 603 
Q 1406 481 1766 481 
L 2356 481 
L 2356 0 
L 1766 0 
Q 1100 0 847 248 
Q 594 497 594 1153 
L 594 3053 
L 172 3053 
L 172 3500 
L 594 3500 
L 594 4494 
L 1172 4494 
z
" transform="scale(0.015625)"/>
       <path id="DejaVuSans-75" d="M 544 1381 
L 544 3500 
L 1119 3500 
L 1119 1403 
Q 1119 906 1312 657 
Q 1506 409 1894 409 
Q 2359 409 2629 706 
Q 2900 1003 2900 1516 
L 2900 3500 
L 3475 3500 
L 3475 0 
L 2900 0 
L 2900 538 
Q 2691 219 2414 64 
Q 2138 -91 1772 -91 
Q 1169 -91 856 284 
Q 544 659 544 1381 
z
M 1991 3584 
L 1991 3584 
z
" transform="scale(0.015625)"/>
       <path id="DejaVuSans-20" transform="scale(0.015625)"/>
       <path id="DejaVuSans-5b" d="M 550 4863 
L 1875 4863 
L 1875 4416 
L 1125 4416 
L 1125 -397 
L 1875 -397 
L 1875 -844 
L 550 -844 
L 550 4863 
z
" transform="scale(0.015625)"/>
       <path id="DejaVuSans-b0" d="M 1600 4347 
Q 1350 4347 1178 4173 
Q 1006 4000 1006 3750 
Q 1006 3503 1178 3333 
Q 1350 3163 1600 3163 
Q 1850 3163 2022 3333 
Q 2194 3503 2194 3750 
Q 2194 3997 2020 4172 
Q 1847 4347 1600 4347 
z
M 1600 4750 
Q 1800 4750 1984 4673 
Q 2169 4597 2303 4453 
Q 2447 4313 2519 4134 
Q 2591 3956 2591 3750 
Q 2591 3338 2302 3052 
Q 2013 2766 1594 2766 
Q 1172 2766 890 3047 
Q 609 3328 609 3750 
Q 609 4169 896 4459 
Q 1184 4750 1600 4750 
z
" transform="scale(0.015625)"/>
       <path id="DejaVuSans-43" d="M 4122 4306 
L 4122 3641 
Q 3803 3938 3442 4084 
Q 3081 4231 2675 4231 
Q 1875 4231 1450 3742 
Q 1025 3253 1025 2328 
Q 1025 1406 1450 917 
Q 1875 428 2675 428 
Q 3081 428 3442 575 
Q 3803 722 4122 1019 
L 4122 359 
Q 3791 134 3420 21 
Q 3050 -91 2638 -91 
Q 1578 -91 968 557 
Q 359 1206 359 2328 
Q 359 3453 968 4101 
Q 1578 4750 2638 4750 
Q 3056 4750 3426 4639 
Q 3797 4528 4122 4306 
z
" transform="scale(0.015625)"/>
       <path id="DejaVuSans-5d" d="M 1947 4863 
L 1947 -844 
L 622 -844 
L 622 -397 
L 1369 -397 
L 1369 4416 
L 622 4416 
L 622 4863 
L 1947 4863 
z
" transform="scale(0.015625)"/>
      </defs>
      <use xlink:href="#DejaVuSans-54"/>
      <use xlink:href="#DejaVuSans-65" transform="translate(44.083984 0)"/>
      <use xlink:href="#DejaVuSans-6d" transform="translate(105.607422 0)"/>
      <use xlink:href="#DejaVuSans-70" transform="translate(203.019531 0)"/>
      <use xlink:href="#DejaVuSans-65" transform="translate(266.496094 0)"/>
      <use xlink:href="#DejaVuSans-72" transform="translate(328.019531 0)"/>
      <use xlink:href="#DejaVuSans-61" transform="translate(369.132812 0)"/>
      <use xlink:href="#DejaVuSans-74" transform="translate(430.412109 0)"/>
      <use xlink:href="#DejaVuSans-75" transform="translate(469.621094 0)"/>
      <use xlink:href="#DejaVuSans-72" transform="translate(533 0)"/>
      <use xlink:href="#DejaVuSans-65" transform="translate(571.863281 0)"/>
      <use xlink:href="#DejaVuSans-20" transform="translate(633.386719 0)"/>
      <use xlink:href="#DejaVuSans-5b" transform="translate(665.173828 0)"/>
      <use xlink:href="#DejaVuSans-b0" transform="translate(704.1875 0)"/>
      <use xlink:href="#DejaVuSans-43" transform="translate(754.1875 0)"/>
      <use xlink:href="#DejaVuSans-5d" transform="translate(824.011719 0)"/>
     </g>
    </g>
   </g>
   <g id="line2d_33">
    <path d="M 71.810085 166.893958 
L 73.064331 161.495384 
L 74.318577 182.961903 
L 75.572822 174.90131 
L 76.827068 179.618407 
L 78.081314 176.296208 
L 79.33556 167.575434 
L 80.589806 164.06157 
L 81.844051 196.261348 
L 83.098297 169.971251 
L 84.352543 156.991248 
L 85.606789 179.873961 
L 86.861034 199.168272 
L 88.11528 191.650732 
L 89.369526 163.614351 
L 90.623772 160.835203 
L 91.878017 169.843474 
L 93.132263 189.521117 
L 94.386509 200.89326 
L 95.640755 187.391502 
L 96.895 212.893641 
L 98.149246 211.839481 
L 99.403492 175.891581 
L 100.657738 150.964438 
L 101.911983 152.72137 
L 103.166229 156.661158 
L 104.420475 167.192104 
L 105.674721 162.95417 
L 106.928966 162.592135 
L 108.183212 167.394417 
L 109.437458 156.075514 
L 110.691704 167.362473 
L 111.945949 204.226108 
L 113.200195 207.079792 
L 114.454441 194.440527 
L 115.708687 165.765262 
L 116.962932 178.212861 
L 118.217178 171.738832 
L 119.471424 169.513384 
L 120.72567 157.800502 
L 121.979915 159.259288 
L 123.234161 164.381012 
L 124.488407 172.154107 
L 125.742653 170.91893 
L 126.996898 161.548624 
L 128.251144 154.052379 
L 130.759636 168.012006 
L 132.013881 191.71462 
L 133.268127 204.226108 
L 134.522373 192.310912 
L 135.776619 165.509708 
L 137.030864 163.348149 
L 138.28511 167.852284 
L 139.539356 183.217456 
L 140.793602 184.25032 
L 142.047847 211.104764 
L 143.302093 218.696842 
L 144.556339 233.998125 
L 145.810585 233.604146 
L 147.06483 209.773755 
L 148.319076 189.39334 
L 149.573322 188.89288 
L 150.827568 193.088222 
L 152.081813 202.213622 
L 153.336059 200.190488 
L 154.590305 175.859637 
L 157.098797 168.587002 
L 158.353042 179.607759 
L 159.607288 173.24021 
L 160.861534 170.280045 
L 162.11578 178.212861 
L 163.370025 194.163677 
L 164.624271 197.996984 
L 165.878517 192.651651 
L 167.132763 162.837041 
L 168.387008 157.331987 
L 169.641254 156.501437 
L 170.8955 152.465816 
L 172.149746 151.102863 
L 173.403991 145.821418 
L 174.658237 141.807093 
L 175.912483 156.235235 
L 177.166729 176.328152 
L 178.420974 178.05314 
L 179.67522 177.158702 
L 180.929466 172.942064 
L 182.183712 174.603164 
L 183.437957 171.696239 
L 184.692203 169.438848 
L 185.946449 169.545328 
L 187.200695 161.303718 
L 188.45494 150.868605 
L 189.709186 156.788935 
L 190.963432 151.656563 
L 192.217678 150.45333 
L 193.471923 147.290852 
L 194.726169 148.845471 
L 195.980415 143.851524 
L 197.234661 143.201991 
L 198.488906 127.474785 
L 199.743152 123.13037 
L 200.997398 120.553536 
L 202.251644 121.852601 
L 203.505889 115.399868 
L 204.760135 117.7105 
L 206.014381 123.300739 
L 207.268627 110.203607 
L 208.522872 119.797523 
L 209.777118 133.91687 
L 211.031364 123.918328 
L 212.28561 124.51462 
L 213.539855 129.6044 
L 214.794101 136.259447 
L 216.048347 133.842334 
L 217.302593 134.364089 
L 219.811084 137.824713 
L 221.06533 137.718233 
L 222.319576 129.487271 
L 223.573821 118.029942 
L 224.828067 122.448893 
L 226.082313 120.191502 
L 227.336559 103.452728 
L 228.590805 119.456784 
L 229.84505 121.746121 
L 231.099296 89.141716 
L 232.353542 72.072852 
L 233.607788 73.137659 
L 234.862033 119.275767 
L 236.116279 99.640717 
L 237.370525 90.717631 
L 238.624771 80.506127 
L 239.879016 85.382945 
L 241.133262 114.313764 
L 242.387508 121.309549 
L 243.641754 113.131828 
L 244.895999 106.721687 
L 246.150245 82.497317 
L 247.404491 86.926916 
L 248.658737 104.815682 
L 249.912982 104.336518 
L 251.167228 99.555533 
L 252.421474 95.637041 
L 253.67572 102.718011 
L 254.929965 79.537152 
L 256.184211 70.848323 
L 257.438457 90.174579 
L 258.692703 80.782977 
L 259.946948 69.53861 
L 261.201194 82.891296 
L 262.45544 90.046802 
L 263.709686 101.014319 
L 264.963931 119.009565 
L 266.218177 124.908599 
L 267.472423 117.082264 
L 268.726669 112.62072 
L 269.980914 110.320736 
L 271.23516 94.476401 
L 272.489406 103.750874 
L 273.743652 108.105937 
L 274.997897 116.028104 
L 276.252143 108.180473 
L 277.506389 83.540828 
L 278.760635 87.203766 
L 280.01488 95.626393 
L 281.269126 85.510722 
L 282.523372 92.740765 
L 283.777618 106.26382 
L 285.031863 110.512402 
L 286.286109 112.876274 
L 287.540355 124.812766 
L 288.794601 112.035076 
L 290.048846 105.039291 
L 291.303092 99.427756 
L 292.557338 97.628231 
L 293.811584 95.20047 
L 295.065829 106.082803 
L 296.320075 113.887841 
L 297.574321 103.356895 
L 298.828567 85.510722 
L 300.082812 86.894972 
L 301.337058 98.064802 
L 302.591304 94.284736 
L 303.84555 85.915349 
L 305.099796 99.417108 
L 306.354041 97.734712 
L 307.608287 92.495859 
L 308.862533 96.265278 
L 310.116779 80.804273 
L 311.371024 73.552934 
L 312.62527 86.841731 
L 313.879516 89.887081 
L 315.133762 86.426456 
L 316.388007 72.839513 
L 317.642253 61.297 
L 318.896499 48.689679 
L 320.150745 54.663249 
L 321.40499 81.379269 
L 322.659236 73.414509 
L 323.913482 80.293165 
L 325.167728 77.088095 
L 326.421973 81.315381 
L 327.676219 75.395051 
L 328.930465 86.245439 
L 330.184711 73.712655 
L 331.438956 39.681408 
L 332.693202 32.398125 
L 333.947448 50.105873 
L 335.201694 41.05501 
L 336.455939 34.591628 
L 337.710185 67.142793 
L 338.964431 76.438562 
L 340.218677 79.505208 
L 341.472922 81.400565 
L 342.727168 97.170364 
L 343.981414 94.455105 
L 345.23566 87.065341 
L 346.489905 63.128469 
L 347.744151 83.956103 
L 348.998397 91.580125 
L 350.252643 96.691201 
L 351.506888 102.483753 
L 352.761134 100.971727 
L 354.01538 94.849084 
L 355.269626 94.09307 
L 356.523871 82.263059 
L 357.778117 92.431971 
L 359.032363 99.023129 
L 361.540854 107.317979 
L 362.7951 107.594829 
L 364.049346 101.269873 
L 365.303592 97.010643 
L 366.557837 100.961079 
L 367.812083 107.967512 
L 369.066329 113.45127 
L 370.320575 109.607315 
L 371.57482 97.670823 
L 372.829066 83.285274 
L 374.083312 100.684229 
L 375.337558 105.273549 
L 376.591804 95.179174 
L 377.846049 83.913511 
L 379.100295 88.130148 
L 380.354541 105.539751 
L 381.608787 101.259225 
L 382.863032 84.712116 
L 384.117278 80.037612 
L 385.371524 78.802435 
L 386.62577 85.968589 
L 387.880015 94.806491 
L 389.134261 99.938863 
L 390.388507 108.446675 
L 391.642753 104.677257 
L 394.151244 116.358195 
L 395.40549 108.595748 
L 396.659736 107.445756 
L 397.913981 104.347166 
L 399.168227 86.437105 
L 400.422473 92.772709 
L 401.676719 111.651746 
L 402.930964 118.477162 
L 404.18521 130.754392 
L 405.439456 134.534458 
L 406.693702 122.150747 
L 407.947947 122.001674 
L 409.202193 129.125236 
L 410.456439 138.208044 
L 411.710685 128.571537 
L 412.96493 128.252094 
L 414.219176 134.875197 
L 415.473422 145.576512 
L 416.727668 136.685369 
L 417.981913 134.300201 
L 419.236159 125.110912 
L 420.490405 136.781202 
L 421.744651 140.529324 
L 422.998896 124.834062 
L 424.253142 125.089616 
L 425.507388 118.732715 
L 426.761634 113.579047 
L 428.015879 97.436566 
L 429.270125 90.728279 
L 430.524371 88.95005 
L 431.778617 131.563646 
L 433.032862 125.888222 
L 434.287108 121.075292 
L 435.541354 128.635425 
L 436.7956 125.06832 
L 438.049845 122.949353 
L 439.304091 124.972487 
L 440.558337 140.795526 
L 441.812583 146.321877 
L 443.066828 142.392738 
L 444.321074 143.851524 
L 445.57532 151.571378 
L 446.829566 166.915254 
L 448.083812 171.408741 
L 449.338057 169.25783 
L 450.592303 153.360255 
L 451.846549 132.042809 
L 453.100795 140.412196 
L 454.35504 133.08632 
L 455.609286 143.702451 
L 456.863532 122.012322 
L 458.117778 132.766878 
L 459.372023 148.355659 
L 460.626269 148.174642 
L 461.880515 141.594132 
L 463.134761 148.334363 
L 464.389006 129.849305 
L 465.643252 118.189664 
L 466.897498 128.209502 
L 468.151744 153.850066 
L 469.405989 149.250098 
L 470.660235 133.416411 
L 471.914481 131.212259 
L 473.168727 133.618724 
L 475.677218 171.547166 
L 476.931464 164.89212 
L 478.18571 169.055517 
L 479.439955 181.417932 
L 480.694201 162.219453 
L 481.948447 156.032921 
L 483.202693 153.243126 
L 484.456938 161.484736 
L 485.711184 177.680457 
L 486.96543 182.685053 
L 488.219676 141.902926 
L 489.473921 124.035457 
L 490.728167 133.341874 
L 491.982413 146.300581 
L 493.236659 155.127835 
L 494.490904 150.794069 
L 495.74515 158.119944 
L 496.999396 178.138325 
L 498.253642 178.10638 
L 499.507887 158.844013 
L 500.762133 157.289394 
L 502.016379 148.281123 
L 503.270625 163.358797 
L 504.52487 194.547008 
L 505.779116 205.940448 
L 507.033362 213.479285 
L 508.287608 202.83121 
L 509.541853 166.393498 
L 510.796099 176.423985 
L 512.050345 180.012386 
L 513.304591 162.45371 
L 514.558836 152.338039 
L 515.813082 169.247182 
L 517.067328 175.316585 
L 518.321574 178.127677 
L 519.575819 154.733856 
L 520.830065 137.260366 
L 522.084311 138.1761 
L 523.338557 140.902007 
L 524.592803 139.443221 
L 525.847048 146.247341 
L 527.101294 158.396794 
L 528.35554 144.660778 
L 528.35554 144.660778 
" clip-path="url(#pe110815ea9)" style="fill: none; stroke: #d62728; stroke-linecap: square"/>
   </g>
   <g id="patch_3">
    <path d="M 48.982812 244.078125 
L 48.982812 22.318125 
" style="fill: none; stroke: #000000; stroke-width: 0.8; stroke-linejoin: miter; stroke-linecap: square"/>
   </g>
   <g id="patch_4">
    <path d="M 551.182813 244.078125 
L 551.182813 22.318125 
" style="fill: none; stroke: #000000; stroke-width: 0.8; stroke-linejoin: miter; stroke-linecap: square"/>
   </g>
   <g id="patch_5">
    <path d="M 48.982812 244.078125 
L 551.182812 244.078125 
" style="fill: none; stroke: #000000; stroke-width: 0.8; stroke-linejoin: miter; stroke-linecap: square"/>
   </g>
   <g id="patch_6">
    <path d="M 48.982812 22.318125 
L 551.182812 22.318125 
" style="fill: none; stroke: #000000; stroke-width: 0.8; stroke-linejoin: miter; stroke-linecap: square"/>
   </g>
   <g id="text_19">
    <!-- Input time series: temperature and PV (daily mean) -->
    <g transform="translate(145.063438 16.318125) scale(0.12 -0.12)">
     <defs>
      <path id="DejaVuSans-49" d="M 628 4666 
L 1259 4666 
L 1259 0 
L 628 0 
L 628 4666 
z
" transform="scale(0.015625)"/>
      <path id="DejaVuSans-6e" d="M 3513 2113 
L 3513 0 
L 2938 0 
L 2938 2094 
Q 2938 2591 2744 2837 
Q 2550 3084 2163 3084 
Q 1697 3084 1428 2787 
Q 1159 2491 1159 1978 
L 1159 0 
L 581 0 
L 581 3500 
L 1159 3500 
L 1159 2956 
Q 1366 3272 1645 3428 
Q 1925 3584 2291 3584 
Q 2894 3584 3203 3211 
Q 3513 2838 3513 2113 
z
" transform="scale(0.015625)"/>
      <path id="DejaVuSans-69" d="M 603 3500 
L 1178 3500 
L 1178 0 
L 603 0 
L 603 3500 
z
M 603 4863 
L 1178 4863 
L 1178 4134 
L 603 4134 
L 603 4863 
z
" transform="scale(0.015625)"/>
      <path id="DejaVuSans-73" d="M 2834 3397 
L 2834 2853 
Q 2591 2978 2328 3040 
Q 2066 3103 1784 3103 
Q 1356 3103 1142 2972 
Q 928 2841 928 2578 
Q 928 2378 1081 2264 
Q 1234 2150 1697 2047 
L 1894 2003 
Q 2506 1872 2764 1633 
Q 3022 1394 3022 966 
Q 3022 478 2636 193 
Q 2250 -91 1575 -91 
Q 1294 -91 989 -36 
Q 684 19 347 128 
L 347 722 
Q 666 556 975 473 
Q 1284 391 1588 391 
Q 1994 391 2212 530 
Q 2431 669 2431 922 
Q 2431 1156 2273 1281 
Q 2116 1406 1581 1522 
L 1381 1569 
Q 847 1681 609 1914 
Q 372 2147 372 2553 
Q 372 3047 722 3315 
Q 1072 3584 1716 3584 
Q 2034 3584 2315 3537 
Q 2597 3491 2834 3397 
z
" transform="scale(0.015625)"/>
      <path id="DejaVuSans-3a" d="M 750 794 
L 1409 794 
L 1409 0 
L 750 0 
L 750 794 
z
M 750 3309 
L 1409 3309 
L 1409 2516 
L 750 2516 
L 750 3309 
z
" transform="scale(0.015625)"/>
      <path id="DejaVuSans-64" d="M 2906 2969 
L 2906 4863 
L 3481 4863 
L 3481 0 
L 2906 0 
L 2906 525 
Q 2725 213 2448 61 
Q 2172 -91 1784 -91 
Q 1150 -91 751 415 
Q 353 922 353 1747 
Q 353 2572 751 3078 
Q 1150 3584 1784 3584 
Q 2172 3584 2448 3432 
Q 2725 3281 2906 2969 
z
M 947 1747 
Q 947 1113 1208 752 
Q 1469 391 1925 391 
Q 2381 391 2643 752 
Q 2906 1113 2906 1747 
Q 2906 2381 2643 2742 
Q 2381 3103 1925 3103 
Q 1469 3103 1208 2742 
Q 947 2381 947 1747 
z
" transform="scale(0.015625)"/>
      <path id="DejaVuSans-50" d="M 1259 4147 
L 1259 2394 
L 2053 2394 
Q 2494 2394 2734 2622 
Q 2975 2850 2975 3272 
Q 2975 3691 2734 3919 
Q 2494 4147 2053 4147 
L 1259 4147 
z
M 628 4666 
L 2053 4666 
Q 2838 4666 3239 4311 
Q 3641 3956 3641 3272 
Q 3641 2581 3239 2228 
Q 2838 1875 2053 1875 
L 1259 1875 
L 1259 0 
L 628 0 
L 628 4666 
z
" transform="scale(0.015625)"/>
      <path id="DejaVuSans-56" d="M 1831 0 
L 50 4666 
L 709 4666 
L 2188 738 
L 3669 4666 
L 4325 4666 
L 2547 0 
L 1831 0 
z
" transform="scale(0.015625)"/>
      <path id="DejaVuSans-28" d="M 1984 4856 
Q 1566 4138 1362 3434 
Q 1159 2731 1159 2009 
Q 1159 1288 1364 580 
Q 1569 -128 1984 -844 
L 1484 -844 
Q 1016 -109 783 600 
Q 550 1309 550 2009 
Q 550 2706 781 3412 
Q 1013 4119 1484 4856 
L 1984 4856 
z
" transform="scale(0.015625)"/>
      <path id="DejaVuSans-6c" d="M 603 4863 
L 1178 4863 
L 1178 0 
L 603 0 
L 603 4863 
z
" transform="scale(0.015625)"/>
      <path id="DejaVuSans-79" d="M 2059 -325 
Q 1816 -950 1584 -1140 
Q 1353 -1331 966 -1331 
L 506 -1331 
L 506 -850 
L 844 -850 
Q 1081 -850 1212 -737 
Q 1344 -625 1503 -206 
L 1606 56 
L 191 3500 
L 800 3500 
L 1894 763 
L 2988 3500 
L 3597 3500 
L 2059 -325 
z
" transform="scale(0.015625)"/>
      <path id="DejaVuSans-29" d="M 513 4856 
L 1013 4856 
Q 1481 4119 1714 3412 
Q 1947 2706 1947 2009 
Q 1947 1309 1714 600 
Q 1481 -109 1013 -844 
L 513 -844 
Q 928 -128 1133 580 
Q 1338 1288 1338 2009 
Q 1338 2731 1133 3434 
Q 928 4138 513 4856 
z
" transform="scale(0.015625)"/>
     </defs>
     <use xlink:href="#DejaVuSans-49"/>
     <use xlink:href="#DejaVuSans-6e" transform="translate(29.492188 0)"/>
     <use xlink:href="#DejaVuSans-70" transform="translate(92.871094 0)"/>
     <use xlink:href="#DejaVuSans-75" transform="translate(156.347656 0)"/>
     <use xlink:href="#DejaVuSans-74" transform="translate(219.726562 0)"/>
     <use xlink:href="#DejaVuSans-20" transform="translate(258.935547 0)"/>
     <use xlink:href="#DejaVuSans-74" transform="translate(290.722656 0)"/>
     <use xlink:href="#DejaVuSans-69" transform="translate(329.931641 0)"/>
     <use xlink:href="#DejaVuSans-6d" transform="translate(357.714844 0)"/>
     <use xlink:href="#DejaVuSans-65" transform="translate(455.126953 0)"/>
     <use xlink:href="#DejaVuSans-20" transform="translate(516.650391 0)"/>
     <use xlink:href="#DejaVuSans-73" transform="translate(548.4375 0)"/>
     <use xlink:href="#DejaVuSans-65" transform="translate(600.537109 0)"/>
     <use xlink:href="#DejaVuSans-72" transform="translate(662.060547 0)"/>
     <use xlink:href="#DejaVuSans-69" transform="translate(703.173828 0)"/>
     <use xlink:href="#DejaVuSans-65" transform="translate(730.957031 0)"/>
     <use xlink:href="#DejaVuSans-73" transform="translate(792.480469 0)"/>
     <use xlink:href="#DejaVuSans-3a" transform="translate(844.580078 0)"/>
     <use xlink:href="#DejaVuSans-20" transform="translate(878.271484 0)"/>
     <use xlink:href="#DejaVuSans-74" transform="translate(910.058594 0)"/>
     <use xlink:href="#DejaVuSans-65" transform="translate(949.267578 0)"/>
     <use xlink:href="#DejaVuSans-6d" transform="translate(1010.791016 0)"/>
     <use xlink:href="#DejaVuSans-70" transform="translate(1108.203125 0)"/>
     <use xlink:href="#DejaVuSans-65" transform="translate(1171.679688 0)"/>
     <use xlink:href="#DejaVuSans-72" transform="translate(1233.203125 0)"/>
     <use xlink:href="#DejaVuSans-61" transform="translate(1274.316406 0)"/>
     <use xlink:href="#DejaVuSans-74" transform="translate(1335.595703 0)"/>
     <use xlink:href="#DejaVuSans-75" transform="translate(1374.804688 0)"/>
     <use xlink:href="#DejaVuSans-72" transform="translate(1438.183594 0)"/>
     <use xlink:href="#DejaVuSans-65" transform="translate(1477.046875 0)"/>
     <use xlink:href="#DejaVuSans-20" transform="translate(1538.570312 0)"/>
     <use xlink:href="#DejaVuSans-61" transform="translate(1570.357422 0)"/>
     <use xlink:href="#DejaVuSans-6e" transform="translate(1631.636719 0)"/>
     <use xlink:href="#DejaVuSans-64" transform="translate(1695.015625 0)"/>
     <use xlink:href="#DejaVuSans-20" transform="translate(1758.492188 0)"/>
     <use xlink:href="#DejaVuSans-50" transform="translate(1790.279297 0)"/>
     <use xlink:href="#DejaVuSans-56" transform="translate(1850.582031 0)"/>
     <use xlink:href="#DejaVuSans-20" transform="translate(1918.990234 0)"/>
     <use xlink:href="#DejaVuSans-28" transform="translate(1950.777344 0)"/>
     <use xlink:href="#DejaVuSans-64" transform="translate(1989.791016 0)"/>
     <use xlink:href="#DejaVuSans-61" transform="translate(2053.267578 0)"/>
     <use xlink:href="#DejaVuSans-69" transform="translate(2114.546875 0)"/>
     <use xlink:href="#DejaVuSans-6c" transform="translate(2142.330078 0)"/>
     <use xlink:href="#DejaVuSans-79" transform="translate(2170.113281 0)"/>
     <use xlink:href="#DejaVuSans-20" transform="translate(2229.292969 0)"/>
     <use xlink:href="#DejaVuSans-6d" transform="translate(2261.080078 0)"/>
     <use xlink:href="#DejaVuSans-65" transform="translate(2358.492188 0)"/>
     <use xlink:href="#DejaVuSans-61" transform="translate(2420.015625 0)"/>
     <use xlink:href="#DejaVuSans-6e" transform="translate(2481.294922 0)"/>
     <use xlink:href="#DejaVuSans-29" transform="translate(2544.673828 0)"/>
    </g>
   </g>
  </g>
  <g id="axes_2">
   <g id="matplotlib.axis_3">
    <g id="ytick_10">
     <g id="line2d_34">
      <path d="M 48.982812 233.998125 
L 551.182813 233.998125 
" clip-path="url(#pe110815ea9)" style="fill: none; stroke: #b0b0b0; stroke-width: 0.8; stroke-linecap: square"/>
     </g>
     <g id="line2d_35">
      <defs>
       <path id="m562062122b" d="M 0 0 
L 3.5 0 
" style="stroke: #000000; stroke-width: 0.8"/>
      </defs>
      <g>
       <use xlink:href="#m562062122b" x="551.182813" y="233.998125" style="stroke: #000000; stroke-width: 0.8"/>
      </g>
     </g>
     <g id="text_20">
      <!-- 0.00 -->
      <g style="fill: #ff7f0e" transform="translate(558.182813 237.797344) scale(0.1 -0.1)">
       <defs>
        <path id="DejaVuSans-2e" d="M 684 794 
L 1344 794 
L 1344 0 
L 684 0 
L 684 794 
z
" transform="scale(0.015625)"/>
       </defs>
       <use xlink:href="#DejaVuSans-30"/>
       <use xlink:href="#DejaVuSans-2e" transform="translate(63.623047 0)"/>
       <use xlink:href="#DejaVuSans-30" transform="translate(95.410156 0)"/>
       <use xlink:href="#DejaVuSans-30" transform="translate(159.033203 0)"/>
      </g>
     </g>
    </g>
    <g id="ytick_11">
     <g id="line2d_36">
      <path d="M 48.982812 201.115156 
L 551.182813 201.115156 
" clip-path="url(#pe110815ea9)" style="fill: none; stroke: #b0b0b0; stroke-width: 0.8; stroke-linecap: square"/>
     </g>
     <g id="line2d_37">
      <g>
       <use xlink:href="#m562062122b" x="551.182813" y="201.115156" style="stroke: #000000; stroke-width: 0.8"/>
      </g>
     </g>
     <g id="text_21">
      <!-- 0.05 -->
      <g style="fill: #ff7f0e" transform="translate(558.182813 204.914375) scale(0.1 -0.1)">
       <use xlink:href="#DejaVuSans-30"/>
       <use xlink:href="#DejaVuSans-2e" transform="translate(63.623047 0)"/>
       <use xlink:href="#DejaVuSans-30" transform="translate(95.410156 0)"/>
       <use xlink:href="#DejaVuSans-35" transform="translate(159.033203 0)"/>
      </g>
     </g>
    </g>
    <g id="ytick_12">
     <g id="line2d_38">
      <path d="M 48.982812 168.232188 
L 551.182813 168.232188 
" clip-path="url(#pe110815ea9)" style="fill: none; stroke: #b0b0b0; stroke-width: 0.8; stroke-linecap: square"/>
     </g>
     <g id="line2d_39">
      <g>
       <use xlink:href="#m562062122b" x="551.182813" y="168.232188" style="stroke: #000000; stroke-width: 0.8"/>
      </g>
     </g>
     <g id="text_22">
      <!-- 0.10 -->
      <g style="fill: #ff7f0e" transform="translate(558.182813 172.031407) scale(0.1 -0.1)">
       <use xlink:href="#DejaVuSans-30"/>
       <use xlink:href="#DejaVuSans-2e" transform="translate(63.623047 0)"/>
       <use xlink:href="#DejaVuSans-31" transform="translate(95.410156 0)"/>
       <use xlink:href="#DejaVuSans-30" transform="translate(159.033203 0)"/>
      </g>
     </g>
    </g>
    <g id="ytick_13">
     <g id="line2d_40">
      <path d="M 48.982812 135.349219 
L 551.182813 135.349219 
" clip-path="url(#pe110815ea9)" style="fill: none; stroke: #b0b0b0; stroke-width: 0.8; stroke-linecap: square"/>
     </g>
     <g id="line2d_41">
      <g>
       <use xlink:href="#m562062122b" x="551.182813" y="135.349219" style="stroke: #000000; stroke-width: 0.8"/>
      </g>
     </g>
     <g id="text_23">
      <!-- 0.15 -->
      <g style="fill: #ff7f0e" transform="translate(558.182813 139.148438) scale(0.1 -0.1)">
       <use xlink:href="#DejaVuSans-30"/>
       <use xlink:href="#DejaVuSans-2e" transform="translate(63.623047 0)"/>
       <use xlink:href="#DejaVuSans-31" transform="translate(95.410156 0)"/>
       <use xlink:href="#DejaVuSans-35" transform="translate(159.033203 0)"/>
      </g>
     </g>
    </g>
    <g id="ytick_14">
     <g id="line2d_42">
      <path d="M 48.982812 102.466251 
L 551.182813 102.466251 
" clip-path="url(#pe110815ea9)" style="fill: none; stroke: #b0b0b0; stroke-width: 0.8; stroke-linecap: square"/>
     </g>
     <g id="line2d_43">
      <g>
       <use xlink:href="#m562062122b" x="551.182813" y="102.466251" style="stroke: #000000; stroke-width: 0.8"/>
      </g>
     </g>
     <g id="text_24">
      <!-- 0.20 -->
      <g style="fill: #ff7f0e" transform="translate(558.182813 106.265469) scale(0.1 -0.1)">
       <use xlink:href="#DejaVuSans-30"/>
       <use xlink:href="#DejaVuSans-2e" transform="translate(63.623047 0)"/>
       <use xlink:href="#DejaVuSans-32" transform="translate(95.410156 0)"/>
       <use xlink:href="#DejaVuSans-30" transform="translate(159.033203 0)"/>
      </g>
     </g>
    </g>
    <g id="ytick_15">
     <g id="line2d_44">
      <path d="M 48.982812 69.583282 
L 551.182813 69.583282 
" clip-path="url(#pe110815ea9)" style="fill: none; stroke: #b0b0b0; stroke-width: 0.8; stroke-linecap: square"/>
     </g>
     <g id="line2d_45">
      <g>
       <use xlink:href="#m562062122b" x="551.182813" y="69.583282" style="stroke: #000000; stroke-width: 0.8"/>
      </g>
     </g>
     <g id="text_25">
      <!-- 0.25 -->
      <g style="fill: #ff7f0e" transform="translate(558.182813 73.382501) scale(0.1 -0.1)">
       <use xlink:href="#DejaVuSans-30"/>
       <use xlink:href="#DejaVuSans-2e" transform="translate(63.623047 0)"/>
       <use xlink:href="#DejaVuSans-32" transform="translate(95.410156 0)"/>
       <use xlink:href="#DejaVuSans-35" transform="translate(159.033203 0)"/>
      </g>
     </g>
    </g>
    <g id="ytick_16">
     <g id="line2d_46">
      <path d="M 48.982812 36.700313 
L 551.182813 36.700313 
" clip-path="url(#pe110815ea9)" style="fill: none; stroke: #b0b0b0; stroke-width: 0.8; stroke-linecap: square"/>
     </g>
     <g id="line2d_47">
      <g>
       <use xlink:href="#m562062122b" x="551.182813" y="36.700313" style="stroke: #000000; stroke-width: 0.8"/>
      </g>
     </g>
     <g id="text_26">
      <!-- 0.30 -->
      <g style="fill: #ff7f0e" transform="translate(558.182813 40.499532) scale(0.1 -0.1)">
       <use xlink:href="#DejaVuSans-30"/>
       <use xlink:href="#DejaVuSans-2e" transform="translate(63.623047 0)"/>
       <use xlink:href="#DejaVuSans-33" transform="translate(95.410156 0)"/>
       <use xlink:href="#DejaVuSans-30" transform="translate(159.033203 0)"/>
      </g>
     </g>
    </g>
    <g id="text_27">
     <!-- PV capacity factor [-] -->
     <g style="fill: #ff7f0e" transform="translate(592.046875 185.86375) rotate(-90) scale(0.1 -0.1)">
      <defs>
       <path id="DejaVuSans-63" d="M 3122 3366 
L 3122 2828 
Q 2878 2963 2633 3030 
Q 2388 3097 2138 3097 
Q 1578 3097 1268 2742 
Q 959 2388 959 1747 
Q 959 1106 1268 751 
Q 1578 397 2138 397 
Q 2388 397 2633 464 
Q 2878 531 3122 666 
L 3122 134 
Q 2881 22 2623 -34 
Q 2366 -91 2075 -91 
Q 1284 -91 818 406 
Q 353 903 353 1747 
Q 353 2603 823 3093 
Q 1294 3584 2113 3584 
Q 2378 3584 2631 3529 
Q 2884 3475 3122 3366 
z
" transform="scale(0.015625)"/>
       <path id="DejaVuSans-66" d="M 2375 4863 
L 2375 4384 
L 1825 4384 
Q 1516 4384 1395 4259 
Q 1275 4134 1275 3809 
L 1275 3500 
L 2222 3500 
L 2222 3053 
L 1275 3053 
L 1275 0 
L 697 0 
L 697 3053 
L 147 3053 
L 147 3500 
L 697 3500 
L 697 3744 
Q 697 4328 969 4595 
Q 1241 4863 1831 4863 
L 2375 4863 
z
" transform="scale(0.015625)"/>
       <path id="DejaVuSans-6f" d="M 1959 3097 
Q 1497 3097 1228 2736 
Q 959 2375 959 1747 
Q 959 1119 1226 758 
Q 1494 397 1959 397 
Q 2419 397 2687 759 
Q 2956 1122 2956 1747 
Q 2956 2369 2687 2733 
Q 2419 3097 1959 3097 
z
M 1959 3584 
Q 2709 3584 3137 3096 
Q 3566 2609 3566 1747 
Q 3566 888 3137 398 
Q 2709 -91 1959 -91 
Q 1206 -91 779 398 
Q 353 888 353 1747 
Q 353 2609 779 3096 
Q 1206 3584 1959 3584 
z
" transform="scale(0.015625)"/>
      </defs>
      <use xlink:href="#DejaVuSans-50"/>
      <use xlink:href="#DejaVuSans-56" transform="translate(60.302734 0)"/>
      <use xlink:href="#DejaVuSans-20" transform="translate(128.710938 0)"/>
      <use xlink:href="#DejaVuSans-63" transform="translate(160.498047 0)"/>
      <use xlink:href="#DejaVuSans-61" transform="translate(215.478516 0)"/>
      <use xlink:href="#DejaVuSans-70" transform="translate(276.757812 0)"/>
      <use xlink:href="#DejaVuSans-61" transform="translate(340.234375 0)"/>
      <use xlink:href="#DejaVuSans-63" transform="translate(401.513672 0)"/>
      <use xlink:href="#DejaVuSans-69" transform="translate(456.494141 0)"/>
      <use xlink:href="#DejaVuSans-74" transform="translate(484.277344 0)"/>
      <use xlink:href="#DejaVuSans-79" transform="translate(523.486328 0)"/>
      <use xlink:href="#DejaVuSans-20" transform="translate(582.666016 0)"/>
      <use xlink:href="#DejaVuSans-66" transform="translate(614.453125 0)"/>
      <use xlink:href="#DejaVuSans-61" transform="translate(649.658203 0)"/>
      <use xlink:href="#DejaVuSans-63" transform="translate(710.9375 0)"/>
      <use xlink:href="#DejaVuSans-74" transform="translate(765.917969 0)"/>
      <use xlink:href="#DejaVuSans-6f" transform="translate(805.126953 0)"/>
      <use xlink:href="#DejaVuSans-72" transform="translate(866.308594 0)"/>
      <use xlink:href="#DejaVuSans-20" transform="translate(907.421875 0)"/>
      <use xlink:href="#DejaVuSans-5b" transform="translate(939.208984 0)"/>
      <use xlink:href="#DejaVuSans-2d" transform="translate(978.222656 0)"/>
      <use xlink:href="#DejaVuSans-5d" transform="translate(1014.306641 0)"/>
     </g>
    </g>
   </g>
   <g id="line2d_48">
    <path d="M 71.810085 233.285661 
L 73.064331 233.669295 
L 74.318577 227.065299 
L 75.572822 233.998125 
L 76.827068 232.765014 
L 78.081314 233.998125 
L 79.33556 233.998125 
L 80.589806 233.532283 
L 81.844051 218.570532 
L 83.098297 219.584424 
L 84.352543 233.7241 
L 85.606789 225.284138 
L 86.861034 218.515727 
L 88.11528 220.379096 
L 89.369526 233.998125 
L 90.623772 233.367868 
L 91.878017 221.447792 
L 93.132263 216.871579 
L 94.386509 225.256736 
L 95.640755 214.953406 
L 96.895 210.67862 
L 98.149246 203.142939 
L 99.403492 233.422673 
L 100.657738 230.600218 
L 101.911983 232.737611 
L 103.166229 232.025147 
L 104.420475 213.473672 
L 105.674721 198.347507 
L 106.928966 229.339704 
L 108.183212 231.641512 
L 109.437458 230.792036 
L 110.691704 204.321246 
L 111.945949 182.454072 
L 113.200195 175.767868 
L 114.454441 212.624195 
L 115.708687 218.132093 
L 116.962932 194.62077 
L 118.217178 230.216584 
L 119.471424 227.503739 
L 121.979915 205.773577 
L 123.234161 182.892511 
L 124.488407 217.912873 
L 125.742653 176.946174 
L 126.996898 194.100123 
L 128.251144 228.462825 
L 129.50539 176.288515 
L 130.759636 195.141417 
L 132.013881 161.463777 
L 133.268127 155.599647 
L 134.522373 195.853881 
L 135.776619 219.694034 
L 137.030864 214.542369 
L 138.28511 204.677478 
L 139.539356 204.074624 
L 140.793602 183.824195 
L 142.047847 156.969771 
L 143.302093 139.486993 
L 144.556339 115.509828 
L 145.810585 114.030095 
L 147.06483 117.839038 
L 148.319076 217.666251 
L 149.573322 177.905261 
L 150.827568 182.234852 
L 152.081813 149.132664 
L 153.336059 150.776812 
L 154.590305 196.867773 
L 155.844551 199.71763 
L 157.098797 200.649314 
L 158.353042 130.252359 
L 159.607288 217.145604 
L 160.861534 125.621341 
L 162.11578 131.869105 
L 163.370025 84.40802 
L 164.624271 78.160256 
L 165.878517 154.229524 
L 167.132763 211.610304 
L 168.387008 200.4849 
L 169.641254 205.47215 
L 170.8955 217.474433 
L 172.149746 198.484519 
L 173.403991 199.60802 
L 174.658237 139.103358 
L 175.912483 202.759305 
L 177.166729 91.916298 
L 178.420974 69.775099 
L 179.67522 65.363301 
L 180.929466 63.280713 
L 183.437957 73.145604 
L 184.692203 152.74979 
L 185.946449 137.048173 
L 187.200695 103.45274 
L 188.45494 154.722768 
L 189.709186 211.802121 
L 190.963432 127.265489 
L 192.217678 156.723149 
L 193.471923 174.644367 
L 194.726169 123.346936 
L 195.980415 55.251788 
L 197.234661 60.650076 
L 198.488906 54.046079 
L 199.743152 51.771674 
L 200.997398 78.489086 
L 202.251644 66.733425 
L 203.505889 66.185375 
L 204.760135 104.576241 
L 206.014381 197.991274 
L 207.268627 175.932283 
L 208.522872 191.688705 
L 209.777118 180.426289 
L 211.031364 163.546365 
L 212.28561 200.923339 
L 213.539855 143.816584 
L 214.794101 117.400599 
L 216.048347 162.94351 
L 217.302593 147.899552 
L 218.556838 154.530951 
L 219.811084 108.43999 
L 221.06533 51.004405 
L 222.319576 148.447602 
L 223.573821 83.613349 
L 224.828067 158.339895 
L 226.082313 135.404024 
L 227.336559 152.338753 
L 228.590805 144.392036 
L 229.84505 97.643415 
L 231.099296 95.012778 
L 232.353542 50.593368 
L 233.607788 50.73038 
L 234.862033 184.701075 
L 236.116279 48.346365 
L 237.370525 62.732664 
L 238.624771 69.692892 
L 239.879016 61.937992 
L 241.133262 120.497078 
L 242.387508 42.345223 
L 243.641754 50.017916 
L 244.895999 65.007069 
L 246.150245 140.11725 
L 247.404491 45.52391 
L 248.658737 150.612397 
L 249.912982 59.828001 
L 251.167228 59.882806 
L 252.421474 43.660542 
L 253.67572 59.225147 
L 254.929965 50.9496 
L 256.184211 146.419819 
L 257.438457 47.113253 
L 258.692703 44.619628 
L 259.946948 92.82058 
L 261.201194 92.93019 
L 262.45544 41.714966 
L 263.709686 135.239609 
L 264.963931 88.792416 
L 266.218177 122.552264 
L 267.472423 53.635042 
L 268.726669 211.692511 
L 269.980914 150.283567 
L 271.23516 37.412778 
L 272.489406 58.512683 
L 273.743652 152.037326 
L 274.997897 101.123529 
L 276.252143 91.532664 
L 277.506389 162.642083 
L 278.760635 100.602882 
L 280.01488 104.302216 
L 281.269126 124.552645 
L 282.523372 122.223434 
L 283.777618 133.650266 
L 285.031863 143.378144 
L 286.286109 90.820199 
L 287.540355 207.034091 
L 288.794601 156.969771 
L 290.048846 192.127145 
L 291.303092 185.742369 
L 292.557338 53.991274 
L 293.811584 80.133234 
L 295.065829 177.165394 
L 296.320075 94.656546 
L 297.574321 32.398125 
L 298.828567 39.961208 
L 300.082812 55.909448 
L 301.337058 98.712112 
L 302.591304 44.318201 
L 303.84555 45.222483 
L 305.099796 127.621722 
L 306.354041 67.117059 
L 307.608287 107.124671 
L 308.862533 90.244747 
L 310.116779 44.153786 
L 311.371024 75.584424 
L 312.62527 150.256165 
L 313.879516 58.320865 
L 315.133762 142.802692 
L 316.388007 88.929429 
L 317.642253 53.799457 
L 318.896499 79.009733 
L 320.150745 164.149219 
L 321.40499 144.282426 
L 322.659236 102.521056 
L 323.913482 151.461874 
L 325.167728 82.763872 
L 326.421973 128.608211 
L 327.676219 99.561588 
L 328.930465 173.68528 
L 330.184711 57.964633 
L 331.438956 61.36254 
L 332.693202 67.582901 
L 333.947448 159.600409 
L 335.201694 68.733805 
L 336.455939 74.186898 
L 338.964431 186.701455 
L 340.218677 183.687183 
L 341.472922 145.43333 
L 343.981414 93.944081 
L 345.23566 117.893843 
L 346.489905 151.489276 
L 347.744151 105.727145 
L 348.998397 177.165394 
L 350.252643 148.694224 
L 351.506888 82.709067 
L 352.761134 127.676527 
L 355.269626 181.11135 
L 356.523871 198.758544 
L 357.778117 122.470056 
L 359.032363 191.332473 
L 360.286609 148.009162 
L 361.540854 176.754357 
L 362.7951 96.958353 
L 364.049346 201.361779 
L 365.303592 126.306403 
L 366.557837 168.424005 
L 367.812083 173.959305 
L 369.066329 159.189371 
L 370.320575 169.02686 
L 372.829066 115.016584 
L 374.083312 103.891179 
L 375.337558 80.188039 
L 376.591804 136.883758 
L 377.846049 175.932283 
L 379.100295 188.263396 
L 380.354541 182.09784 
L 381.608787 154.503548 
L 382.863032 109.645699 
L 384.117278 109.289467 
L 385.371524 101.479762 
L 386.62577 108.083758 
L 387.880015 189.96235 
L 389.134261 171.849314 
L 390.388507 178.124481 
L 391.642753 164.012207 
L 392.896998 201.690608 
L 394.151244 210.486802 
L 395.40549 169.437897 
L 396.659736 160.121056 
L 397.913981 210.212778 
L 399.168227 155.928477 
L 400.422473 207.883567 
L 401.676719 206.486041 
L 402.930964 222.982331 
L 404.18521 210.623815 
L 405.439456 189.715727 
L 406.693702 225.530761 
L 407.947947 215.857687 
L 409.202193 222.434281 
L 410.456439 208.733044 
L 411.710685 220.296888 
L 412.96493 227.805166 
L 414.219176 201.389181 
L 415.473422 153.845889 
L 416.727668 188.345604 
L 417.981913 200.26568 
L 419.236159 193.880903 
L 420.490405 223.146745 
L 421.744651 199.991655 
L 422.998896 208.294605 
L 424.253142 219.940656 
L 425.507388 200.704119 
L 426.761634 170.177763 
L 428.015879 144.99489 
L 429.270125 212.158353 
L 430.524371 208.678239 
L 431.778617 212.89822 
L 433.032862 181.577193 
L 434.287108 175.877478 
L 435.541354 222.790513 
L 436.7956 221.694414 
L 438.049845 221.886232 
L 439.304091 219.776241 
L 440.558337 230.95645 
L 441.812583 225.695175 
L 443.066828 224.599076 
L 444.321074 230.95645 
L 445.57532 209.883948 
L 446.829566 173.246841 
L 448.083812 154.585756 
L 449.338057 151.708496 
L 450.592303 194.867392 
L 451.846549 228.84646 
L 453.100795 187.249505 
L 454.35504 230.95645 
L 455.609286 229.421912 
L 456.863532 228.95607 
L 458.117778 219.968058 
L 459.372023 212.953025 
L 460.626269 195.16882 
L 461.880515 221.831427 
L 463.134761 192.62039 
L 464.389006 203.581379 
L 465.643252 231.696317 
L 466.897498 231.72372 
L 468.151744 218.817154 
L 469.405989 231.531902 
L 470.660235 231.696317 
L 471.914481 231.696317 
L 473.168727 232.573196 
L 474.422972 205.280332 
L 475.677218 212.56939 
L 476.931464 218.269105 
L 478.18571 200.786327 
L 479.439955 232.682806 
L 480.694201 232.710209 
L 481.948447 229.257497 
L 484.456938 233.039038 
L 485.711184 217.090799 
L 486.96543 220.077668 
L 488.219676 232.079952 
L 489.473921 229.613729 
L 490.728167 230.846841 
L 491.982413 228.490228 
L 493.236659 230.709828 
L 494.490904 233.998125 
L 495.74515 233.998125 
L 496.999396 227.695556 
L 498.253642 228.161398 
L 499.507887 233.998125 
L 502.016379 233.94332 
L 503.270625 233.696698 
L 504.52487 227.914776 
L 507.033362 228.791655 
L 508.287608 226.544652 
L 509.541853 228.024386 
L 510.796099 233.970723 
L 512.050345 231.696317 
L 513.304591 233.313063 
L 514.558836 232.107354 
L 515.813082 232.244367 
L 517.067328 232.573196 
L 518.321574 233.148648 
L 519.575819 233.998125 
L 528.35554 233.998125 
L 528.35554 233.998125 
" clip-path="url(#pe110815ea9)" style="fill: none; stroke: #ff7f0e; stroke-linecap: square"/>
   </g>
   <g id="patch_7">
    <path d="M 48.982812 244.078125 
L 48.982812 22.318125 
" style="fill: none; stroke: #000000; stroke-width: 0.8; stroke-linejoin: miter; stroke-linecap: square"/>
   </g>
   <g id="patch_8">
    <path d="M 551.182813 244.078125 
L 551.182813 22.318125 
" style="fill: none; stroke: #000000; stroke-width: 0.8; stroke-linejoin: miter; stroke-linecap: square"/>
   </g>
   <g id="patch_9">
    <path d="M 48.982812 244.078125 
L 551.182812 244.078125 
" style="fill: none; stroke: #000000; stroke-width: 0.8; stroke-linejoin: miter; stroke-linecap: square"/>
   </g>
   <g id="patch_10">
    <path d="M 48.982812 22.318125 
L 551.182812 22.318125 
" style="fill: none; stroke: #000000; stroke-width: 0.8; stroke-linejoin: miter; stroke-linecap: square"/>
   </g>
  </g>
 </g>
 <defs>
  <clipPath id="pe110815ea9">
   <rect x="48.982812" y="22.318125" width="502.2" height="221.76"/>
  </clipPath>
 </defs>
</svg>
