<?xml version="1.0" encoding="utf-8" standalone="no"?>
<!DOCTYPE svg PUBLIC "-//W3C//DTD SVG 1.1//EN"
  "http://www.w3.org/Graphics/SVG/1.1/DTD/svg11.dtd">
<svg xmlns:xlink="http://www.w3.org/1999/xlink" width="568.560937pt" height="444.875671pt" viewBox="0 0 568.560937 444.875671" xmlns="http://www.w3.org/2000/svg" version="1.1">
 <metadata>
  <rdf:RDF xmlns:dc="http://purl.org/dc/elements/1.1/" xmlns:cc="http://creativecommons.org/ns#" xmlns:rdf="http://www.w3.org/1999/02/22-rdf-syntax-ns#">
   <cc:Work>
    <dc:type rdf:resource="http://purl.org/dc/dcmitype/StillImage"/>
    <dc:date>2026-06-03T15:47:56.447472</dc:date>
    <dc:format>image/svg+xml</dc:format>
    <dc:creator>
     <cc:Agent>
      <dc:title>Matplotlib v3.10.9, https://matplotlib.org/</dc:title>
     </cc:Agent>
    </dc:creator>
   </cc:Work>
  </rdf:RDF>
 </metadata>
 <defs>
  <style type="text/css">*{stroke-linejoin: round; stroke-linecap: butt}</style>
 </defs>
 <g id="figure_1">
  <g id="patch_1">
   <path d="M 0 444.875671 
L 568.560937 444.875671 
L 568.560937 0 
L 0 0 
z
" style="fill: #ffffff"/>
  </g>
  <g id="axes_1">
   <g id="patch_2">
    <path d="M 52.160938 407.319421 
L 561.360937 407.319421 
L 561.360937 22.318125 
L 52.160938 22.318125 
z
" style="fill: #ffffff"/>
   </g>
   <g id="matplotlib.axis_1">
    <g id="xtick_1">
     <g id="line2d_1">
      <path d="M 63.439878 407.319421 
L 63.439878 22.318125 
" clip-path="url(#pd842207e96)" style="fill: none; stroke: #b0b0b0; stroke-width: 0.8; stroke-linecap: square"/>
     </g>
     <g id="line2d_2">
      <defs>
       <path id="m4803611391" d="M 0 0 
L 0 3.5 
" style="stroke: #000000; stroke-width: 0.8"/>
      </defs>
      <g>
       <use xlink:href="#m4803611391" x="63.439878" y="407.319421" style="stroke: #000000; stroke-width: 0.8"/>
      </g>
     </g>
     <g id="text_1">
      <!-- −0.6 -->
      <g transform="translate(51.298472 421.917858) scale(0.1 -0.1)">
       <defs>
        <path id="DejaVuSans-2212" d="M 678 2272 
L 4684 2272 
L 4684 1741 
L 678 1741 
L 678 2272 
z
" transform="scale(0.015625)"/>
        <path id="DejaVuSans-30" d="M 2034 4250 
Q 1547 4250 1301 3770 
Q 1056 3291 1056 2328 
Q 1056 1369 1301 889 
Q 1547 409 2034 409 
Q 2525 409 2770 889 
Q 3016 1369 3016 2328 
Q 3016 3291 2770 3770 
Q 2525 4250 2034 4250 
z
M 2034 4750 
Q 2819 4750 3233 4129 
Q 3647 3509 3647 2328 
Q 3647 1150 3233 529 
Q 2819 -91 2034 -91 
Q 1250 -91 836 529 
Q 422 1150 422 2328 
Q 422 3509 836 4129 
Q 1250 4750 2034 4750 
z
" transform="scale(0.015625)"/>
        <path id="DejaVuSans-2e" d="M 684 794 
L 1344 794 
L 1344 0 
L 684 0 
L 684 794 
z
" transform="scale(0.015625)"/>
        <path id="DejaVuSans-36" d="M 2113 2584 
Q 1688 2584 1439 2293 
Q 1191 2003 1191 1497 
Q 1191 994 1439 701 
Q 1688 409 2113 409 
Q 2538 409 2786 701 
Q 3034 994 3034 1497 
Q 3034 2003 2786 2293 
Q 2538 2584 2113 2584 
z
M 3366 4563 
L 3366 3988 
Q 3128 4100 2886 4159 
Q 2644 4219 2406 4219 
Q 1781 4219 1451 3797 
Q 1122 3375 1075 2522 
Q 1259 2794 1537 2939 
Q 1816 3084 2150 3084 
Q 2853 3084 3261 2657 
Q 3669 2231 3669 1497 
Q 3669 778 3244 343 
Q 2819 -91 2113 -91 
Q 1303 -91 875 529 
Q 447 1150 447 2328 
Q 447 3434 972 4092 
Q 1497 4750 2381 4750 
Q 2619 4750 2861 4703 
Q 3103 4656 3366 4563 
z
" transform="scale(0.015625)"/>
       </defs>
       <use xlink:href="#DejaVuSans-2212"/>
       <use xlink:href="#DejaVuSans-30" transform="translate(83.789062 0)"/>
       <use xlink:href="#DejaVuSans-2e" transform="translate(147.412109 0)"/>
       <use xlink:href="#DejaVuSans-36" transform="translate(179.199219 0)"/>
      </g>
     </g>
    </g>
    <g id="xtick_2">
     <g id="line2d_3">
      <path d="M 147.044067 407.319421 
L 147.044067 22.318125 
" clip-path="url(#pd842207e96)" style="fill: none; stroke: #b0b0b0; stroke-width: 0.8; stroke-linecap: square"/>
     </g>
     <g id="line2d_4">
      <g>
       <use xlink:href="#m4803611391" x="147.044067" y="407.319421" style="stroke: #000000; stroke-width: 0.8"/>
      </g>
     </g>
     <g id="text_2">
      <!-- −0.4 -->
      <g transform="translate(134.902661 421.917858) scale(0.1 -0.1)">
       <defs>
        <path id="DejaVuSans-34" d="M 2419 4116 
L 825 1625 
L 2419 1625 
L 2419 4116 
z
M 2253 4666 
L 3047 4666 
L 3047 1625 
L 3713 1625 
L 3713 1100 
L 3047 1100 
L 3047 0 
L 2419 0 
L 2419 1100 
L 313 1100 
L 313 1709 
L 2253 4666 
z
" transform="scale(0.015625)"/>
       </defs>
       <use xlink:href="#DejaVuSans-2212"/>
       <use xlink:href="#DejaVuSans-30" transform="translate(83.789062 0)"/>
       <use xlink:href="#DejaVuSans-2e" transform="translate(147.412109 0)"/>
       <use xlink:href="#DejaVuSans-34" transform="translate(179.199219 0)"/>
      </g>
     </g>
    </g>
    <g id="xtick_3">
     <g id="line2d_5">
      <path d="M 230.648255 407.319421 
L 230.648255 22.318125 
" clip-path="url(#pd842207e96)" style="fill: none; stroke: #b0b0b0; stroke-width: 0.8; stroke-linecap: square"/>
     </g>
     <g id="line2d_6">
      <g>
       <use xlink:href="#m4803611391" x="230.648255" y="407.319421" style="stroke: #000000; stroke-width: 0.8"/>
      </g>
     </g>
     <g id="text_3">
      <!-- −0.2 -->
      <g transform="translate(218.506849 421.917858) scale(0.1 -0.1)">
       <defs>
        <path id="DejaVuSans-32" d="M 1228 531 
L 3431 531 
L 3431 0 
L 469 0 
L 469 531 
Q 828 903 1448 1529 
Q 2069 2156 2228 2338 
Q 2531 2678 2651 2914 
Q 2772 3150 2772 3378 
Q 2772 3750 2511 3984 
Q 2250 4219 1831 4219 
Q 1534 4219 1204 4116 
Q 875 4013 500 3803 
L 500 4441 
Q 881 4594 1212 4672 
Q 1544 4750 1819 4750 
Q 2544 4750 2975 4387 
Q 3406 4025 3406 3419 
Q 3406 3131 3298 2873 
Q 3191 2616 2906 2266 
Q 2828 2175 2409 1742 
Q 1991 1309 1228 531 
z
" transform="scale(0.015625)"/>
       </defs>
       <use xlink:href="#DejaVuSans-2212"/>
       <use xlink:href="#DejaVuSans-30" transform="translate(83.789062 0)"/>
       <use xlink:href="#DejaVuSans-2e" transform="translate(147.412109 0)"/>
       <use xlink:href="#DejaVuSans-32" transform="translate(179.199219 0)"/>
      </g>
     </g>
    </g>
    <g id="xtick_4">
     <g id="line2d_7">
      <path d="M 314.252444 407.319421 
L 314.252444 22.318125 
" clip-path="url(#pd842207e96)" style="fill: none; stroke: #b0b0b0; stroke-width: 0.8; stroke-linecap: square"/>
     </g>
     <g id="line2d_8">
      <g>
       <use xlink:href="#m4803611391" x="314.252444" y="407.319421" style="stroke: #000000; stroke-width: 0.8"/>
      </g>
     </g>
     <g id="text_4">
      <!-- 0.0 -->
      <g transform="translate(306.300881 421.917858) scale(0.1 -0.1)">
       <use xlink:href="#DejaVuSans-30"/>
       <use xlink:href="#DejaVuSans-2e" transform="translate(63.623047 0)"/>
       <use xlink:href="#DejaVuSans-30" transform="translate(95.410156 0)"/>
      </g>
     </g>
    </g>
    <g id="xtick_5">
     <g id="line2d_9">
      <path d="M 397.856632 407.319421 
L 397.856632 22.318125 
" clip-path="url(#pd842207e96)" style="fill: none; stroke: #b0b0b0; stroke-width: 0.8; stroke-linecap: square"/>
     </g>
     <g id="line2d_10">
      <g>
       <use xlink:href="#m4803611391" x="397.856632" y="407.319421" style="stroke: #000000; stroke-width: 0.8"/>
      </g>
     </g>
     <g id="text_5">
      <!-- 0.2 -->
      <g transform="translate(389.90507 421.917858) scale(0.1 -0.1)">
       <use xlink:href="#DejaVuSans-30"/>
       <use xlink:href="#DejaVuSans-2e" transform="translate(63.623047 0)"/>
       <use xlink:href="#DejaVuSans-32" transform="translate(95.410156 0)"/>
      </g>
     </g>
    </g>
    <g id="xtick_6">
     <g id="line2d_11">
      <path d="M 481.460821 407.319421 
L 481.460821 22.318125 
" clip-path="url(#pd842207e96)" style="fill: none; stroke: #b0b0b0; stroke-width: 0.8; stroke-linecap: square"/>
     </g>
     <g id="line2d_12">
      <g>
       <use xlink:href="#m4803611391" x="481.460821" y="407.319421" style="stroke: #000000; stroke-width: 0.8"/>
      </g>
     </g>
     <g id="text_6">
      <!-- 0.4 -->
      <g transform="translate(473.509258 421.917858) scale(0.1 -0.1)">
       <use xlink:href="#DejaVuSans-30"/>
       <use xlink:href="#DejaVuSans-2e" transform="translate(63.623047 0)"/>
       <use xlink:href="#DejaVuSans-34" transform="translate(95.410156 0)"/>
      </g>
     </g>
    </g>
    <g id="text_7">
     <!-- Active Power Flexibility [p.u.] -->
     <g transform="translate(234.126563 435.595983) scale(0.1 -0.1)">
      <defs>
       <path id="DejaVuSans-41" d="M 2188 4044 
L 1331 1722 
L 3047 1722 
L 2188 4044 
z
M 1831 4666 
L 2547 4666 
L 4325 0 
L 3669 0 
L 3244 1197 
L 1141 1197 
L 716 0 
L 50 0 
L 1831 4666 
z
" transform="scale(0.015625)"/>
       <path id="DejaVuSans-63" d="M 3122 3366 
L 3122 2828 
Q 2878 2963 2633 3030 
Q 2388 3097 2138 3097 
Q 1578 3097 1268 2742 
Q 959 2388 959 1747 
Q 959 1106 1268 751 
Q 1578 397 2138 397 
Q 2388 397 2633 464 
Q 2878 531 3122 666 
L 3122 134 
Q 2881 22 2623 -34 
Q 2366 -91 2075 -91 
Q 1284 -91 818 406 
Q 353 903 353 1747 
Q 353 2603 823 3093 
Q 1294 3584 2113 3584 
Q 2378 3584 2631 3529 
Q 2884 3475 3122 3366 
z
" transform="scale(0.015625)"/>
       <path id="DejaVuSans-74" d="M 1172 4494 
L 1172 3500 
L 2356 3500 
L 2356 3053 
L 1172 3053 
L 1172 1153 
Q 1172 725 1289 603 
Q 1406 481 1766 481 
L 2356 481 
L 2356 0 
L 1766 0 
Q 1100 0 847 248 
Q 594 497 594 1153 
L 594 3053 
L 172 3053 
L 172 3500 
L 594 3500 
L 594 4494 
L 1172 4494 
z
" transform="scale(0.015625)"/>
       <path id="DejaVuSans-69" d="M 603 3500 
L 1178 3500 
L 1178 0 
L 603 0 
L 603 3500 
z
M 603 4863 
L 1178 4863 
L 1178 4134 
L 603 4134 
L 603 4863 
z
" transform="scale(0.015625)"/>
       <path id="DejaVuSans-76" d="M 191 3500 
L 800 3500 
L 1894 563 
L 2988 3500 
L 3597 3500 
L 2284 0 
L 1503 0 
L 191 3500 
z
" transform="scale(0.015625)"/>
       <path id="DejaVuSans-65" d="M 3597 1894 
L 3597 1613 
L 953 1613 
Q 991 1019 1311 708 
Q 1631 397 2203 397 
Q 2534 397 2845 478 
Q 3156 559 3463 722 
L 3463 178 
Q 3153 47 2828 -22 
Q 2503 -91 2169 -91 
Q 1331 -91 842 396 
Q 353 884 353 1716 
Q 353 2575 817 3079 
Q 1281 3584 2069 3584 
Q 2775 3584 3186 3129 
Q 3597 2675 3597 1894 
z
M 3022 2063 
Q 3016 2534 2758 2815 
Q 2500 3097 2075 3097 
Q 1594 3097 1305 2825 
Q 1016 2553 972 2059 
L 3022 2063 
z
" transform="scale(0.015625)"/>
       <path id="DejaVuSans-20" transform="scale(0.015625)"/>
       <path id="DejaVuSans-50" d="M 1259 4147 
L 1259 2394 
L 2053 2394 
Q 2494 2394 2734 2622 
Q 2975 2850 2975 3272 
Q 2975 3691 2734 3919 
Q 2494 4147 2053 4147 
L 1259 4147 
z
M 628 4666 
L 2053 4666 
Q 2838 4666 3239 4311 
Q 3641 3956 3641 3272 
Q 3641 2581 3239 2228 
Q 2838 1875 2053 1875 
L 1259 1875 
L 1259 0 
L 628 0 
L 628 4666 
z
" transform="scale(0.015625)"/>
       <path id="DejaVuSans-6f" d="M 1959 3097 
Q 1497 3097 1228 2736 
Q 959 2375 959 1747 
Q 959 1119 1226 758 
Q 1494 397 1959 397 
Q 2419 397 2687 759 
Q 2956 1122 2956 1747 
Q 2956 2369 2687 2733 
Q 2419 3097 1959 3097 
z
M 1959 3584 
Q 2709 3584 3137 3096 
Q 3566 2609 3566 1747 
Q 3566 888 3137 398 
Q 2709 -91 1959 -91 
Q 1206 -91 779 398 
Q 353 888 353 1747 
Q 353 2609 779 3096 
Q 1206 3584 1959 3584 
z
" transform="scale(0.015625)"/>
       <path id="DejaVuSans-77" d="M 269 3500 
L 844 3500 
L 1563 769 
L 2278 3500 
L 2956 3500 
L 3675 769 
L 4391 3500 
L 4966 3500 
L 4050 0 
L 3372 0 
L 2619 2869 
L 1863 0 
L 1184 0 
L 269 3500 
z
" transform="scale(0.015625)"/>
       <path id="DejaVuSans-72" d="M 2631 2963 
Q 2534 3019 2420 3045 
Q 2306 3072 2169 3072 
Q 1681 3072 1420 2755 
Q 1159 2438 1159 1844 
L 1159 0 
L 581 0 
L 581 3500 
L 1159 3500 
L 1159 2956 
Q 1341 3275 1631 3429 
Q 1922 3584 2338 3584 
Q 2397 3584 2469 3576 
Q 2541 3569 2628 3553 
L 2631 2963 
z
" transform="scale(0.015625)"/>
       <path id="DejaVuSans-46" d="M 628 4666 
L 3309 4666 
L 3309 4134 
L 1259 4134 
L 1259 2759 
L 3109 2759 
L 3109 2228 
L 1259 2228 
L 1259 0 
L 628 0 
L 628 4666 
z
" transform="scale(0.015625)"/>
       <path id="DejaVuSans-6c" d="M 603 4863 
L 1178 4863 
L 1178 0 
L 603 0 
L 603 4863 
z
" transform="scale(0.015625)"/>
       <path id="DejaVuSans-78" d="M 3513 3500 
L 2247 1797 
L 3578 0 
L 2900 0 
L 1881 1375 
L 863 0 
L 184 0 
L 1544 1831 
L 300 3500 
L 978 3500 
L 1906 2253 
L 2834 3500 
L 3513 3500 
z
" transform="scale(0.015625)"/>
       <path id="DejaVuSans-62" d="M 3116 1747 
Q 3116 2381 2855 2742 
Q 2594 3103 2138 3103 
Q 1681 3103 1420 2742 
Q 1159 2381 1159 1747 
Q 1159 1113 1420 752 
Q 1681 391 2138 391 
Q 2594 391 2855 752 
Q 3116 1113 3116 1747 
z
M 1159 2969 
Q 1341 3281 1617 3432 
Q 1894 3584 2278 3584 
Q 2916 3584 3314 3078 
Q 3713 2572 3713 1747 
Q 3713 922 3314 415 
Q 2916 -91 2278 -91 
Q 1894 -91 1617 61 
Q 1341 213 1159 525 
L 1159 0 
L 581 0 
L 581 4863 
L 1159 4863 
L 1159 2969 
z
" transform="scale(0.015625)"/>
       <path id="DejaVuSans-79" d="M 2059 -325 
Q 1816 -950 1584 -1140 
Q 1353 -1331 966 -1331 
L 506 -1331 
L 506 -850 
L 844 -850 
Q 1081 -850 1212 -737 
Q 1344 -625 1503 -206 
L 1606 56 
L 191 3500 
L 800 3500 
L 1894 763 
L 2988 3500 
L 3597 3500 
L 2059 -325 
z
" transform="scale(0.015625)"/>
       <path id="DejaVuSans-5b" d="M 550 4863 
L 1875 4863 
L 1875 4416 
L 1125 4416 
L 1125 -397 
L 1875 -397 
L 1875 -844 
L 550 -844 
L 550 4863 
z
" transform="scale(0.015625)"/>
       <path id="DejaVuSans-70" d="M 1159 525 
L 1159 -1331 
L 581 -1331 
L 581 3500 
L 1159 3500 
L 1159 2969 
Q 1341 3281 1617 3432 
Q 1894 3584 2278 3584 
Q 2916 3584 3314 3078 
Q 3713 2572 3713 1747 
Q 3713 922 3314 415 
Q 2916 -91 2278 -91 
Q 1894 -91 1617 61 
Q 1341 213 1159 525 
z
M 3116 1747 
Q 3116 2381 2855 2742 
Q 2594 3103 2138 3103 
Q 1681 3103 1420 2742 
Q 1159 2381 1159 1747 
Q 1159 1113 1420 752 
Q 1681 391 2138 391 
Q 2594 391 2855 752 
Q 3116 1113 3116 1747 
z
" transform="scale(0.015625)"/>
       <path id="DejaVuSans-75" d="M 544 1381 
L 544 3500 
L 1119 3500 
L 1119 1403 
Q 1119 906 1312 657 
Q 1506 409 1894 409 
Q 2359 409 2629 706 
Q 2900 1003 2900 1516 
L 2900 3500 
L 3475 3500 
L 3475 0 
L 2900 0 
L 2900 538 
Q 2691 219 2414 64 
Q 2138 -91 1772 -91 
Q 1169 -91 856 284 
Q 544 659 544 1381 
z
M 1991 3584 
L 1991 3584 
z
" transform="scale(0.015625)"/>
       <path id="DejaVuSans-5d" d="M 1947 4863 
L 1947 -844 
L 622 -844 
L 622 -397 
L 1369 -397 
L 1369 4416 
L 622 4416 
L 622 4863 
L 1947 4863 
z
" transform="scale(0.015625)"/>
      </defs>
      <use xlink:href="#DejaVuSans-41"/>
      <use xlink:href="#DejaVuSans-63" transform="translate(66.658203 0)"/>
      <use xlink:href="#DejaVuSans-74" transform="translate(121.638672 0)"/>
      <use xlink:href="#DejaVuSans-69" transform="translate(160.847656 0)"/>
      <use xlink:href="#DejaVuSans-76" transform="translate(188.630859 0)"/>
      <use xlink:href="#DejaVuSans-65" transform="translate(247.810547 0)"/>
      <use xlink:href="#DejaVuSans-20" transform="translate(309.333984 0)"/>
      <use xlink:href="#DejaVuSans-50" transform="translate(341.121094 0)"/>
      <use xlink:href="#DejaVuSans-6f" transform="translate(397.798828 0)"/>
      <use xlink:href="#DejaVuSans-77" transform="translate(458.980469 0)"/>
      <use xlink:href="#DejaVuSans-65" transform="translate(540.767578 0)"/>
      <use xlink:href="#DejaVuSans-72" transform="translate(602.291016 0)"/>
      <use xlink:href="#DejaVuSans-20" transform="translate(643.404297 0)"/>
      <use xlink:href="#DejaVuSans-46" transform="translate(675.191406 0)"/>
      <use xlink:href="#DejaVuSans-6c" transform="translate(732.710938 0)"/>
      <use xlink:href="#DejaVuSans-65" transform="translate(760.494141 0)"/>
      <use xlink:href="#DejaVuSans-78" transform="translate(820.267578 0)"/>
      <use xlink:href="#DejaVuSans-69" transform="translate(879.447266 0)"/>
      <use xlink:href="#DejaVuSans-62" transform="translate(907.230469 0)"/>
      <use xlink:href="#DejaVuSans-69" transform="translate(970.707031 0)"/>
      <use xlink:href="#DejaVuSans-6c" transform="translate(998.490234 0)"/>
      <use xlink:href="#DejaVuSans-69" transform="translate(1026.273438 0)"/>
      <use xlink:href="#DejaVuSans-74" transform="translate(1054.056641 0)"/>
      <use xlink:href="#DejaVuSans-79" transform="translate(1093.265625 0)"/>
      <use xlink:href="#DejaVuSans-20" transform="translate(1152.445312 0)"/>
      <use xlink:href="#DejaVuSans-5b" transform="translate(1184.232422 0)"/>
      <use xlink:href="#DejaVuSans-70" transform="translate(1223.246094 0)"/>
      <use xlink:href="#DejaVuSans-2e" transform="translate(1286.722656 0)"/>
      <use xlink:href="#DejaVuSans-75" transform="translate(1318.509766 0)"/>
      <use xlink:href="#DejaVuSans-2e" transform="translate(1381.888672 0)"/>
      <use xlink:href="#DejaVuSans-5d" transform="translate(1413.675781 0)"/>
     </g>
    </g>
   </g>
   <g id="matplotlib.axis_2">
    <g id="ytick_1">
     <g id="line2d_13">
      <path d="M 52.160938 380.541101 
L 561.360937 380.541101 
" clip-path="url(#pd842207e96)" style="fill: none; stroke: #b0b0b0; stroke-width: 0.8; stroke-linecap: square"/>
     </g>
     <g id="line2d_14">
      <defs>
       <path id="m150745bc42" d="M 0 0 
L -3.5 0 
" style="stroke: #000000; stroke-width: 0.8"/>
      </defs>
      <g>
       <use xlink:href="#m150745bc42" x="52.160938" y="380.541101" style="stroke: #000000; stroke-width: 0.8"/>
      </g>
     </g>
     <g id="text_8">
      <!-- −0.4 -->
      <g transform="translate(20.878125 384.34032) scale(0.1 -0.1)">
       <use xlink:href="#DejaVuSans-2212"/>
       <use xlink:href="#DejaVuSans-30" transform="translate(83.789062 0)"/>
       <use xlink:href="#DejaVuSans-2e" transform="translate(147.412109 0)"/>
       <use xlink:href="#DejaVuSans-34" transform="translate(179.199219 0)"/>
      </g>
     </g>
    </g>
    <g id="ytick_2">
     <g id="line2d_15">
      <path d="M 52.160938 296.936912 
L 561.360937 296.936912 
" clip-path="url(#pd842207e96)" style="fill: none; stroke: #b0b0b0; stroke-width: 0.8; stroke-linecap: square"/>
     </g>
     <g id="line2d_16">
      <g>
       <use xlink:href="#m150745bc42" x="52.160938" y="296.936912" style="stroke: #000000; stroke-width: 0.8"/>
      </g>
     </g>
     <g id="text_9">
      <!-- −0.2 -->
      <g transform="translate(20.878125 300.736131) scale(0.1 -0.1)">
       <use xlink:href="#DejaVuSans-2212"/>
       <use xlink:href="#DejaVuSans-30" transform="translate(83.789062 0)"/>
       <use xlink:href="#DejaVuSans-2e" transform="translate(147.412109 0)"/>
       <use xlink:href="#DejaVuSans-32" transform="translate(179.199219 0)"/>
      </g>
     </g>
    </g>
    <g id="ytick_3">
     <g id="line2d_17">
      <path d="M 52.160938 213.332724 
L 561.360937 213.332724 
" clip-path="url(#pd842207e96)" style="fill: none; stroke: #b0b0b0; stroke-width: 0.8; stroke-linecap: square"/>
     </g>
     <g id="line2d_18">
      <g>
       <use xlink:href="#m150745bc42" x="52.160938" y="213.332724" style="stroke: #000000; stroke-width: 0.8"/>
      </g>
     </g>
     <g id="text_10">
      <!-- 0.0 -->
      <g transform="translate(29.257813 217.131943) scale(0.1 -0.1)">
       <use xlink:href="#DejaVuSans-30"/>
       <use xlink:href="#DejaVuSans-2e" transform="translate(63.623047 0)"/>
       <use xlink:href="#DejaVuSans-30" transform="translate(95.410156 0)"/>
      </g>
     </g>
    </g>
    <g id="ytick_4">
     <g id="line2d_19">
      <path d="M 52.160938 129.728535 
L 561.360937 129.728535 
" clip-path="url(#pd842207e96)" style="fill: none; stroke: #b0b0b0; stroke-width: 0.8; stroke-linecap: square"/>
     </g>
     <g id="line2d_20">
      <g>
       <use xlink:href="#m150745bc42" x="52.160938" y="129.728535" style="stroke: #000000; stroke-width: 0.8"/>
      </g>
     </g>
     <g id="text_11">
      <!-- 0.2 -->
      <g transform="translate(29.257813 133.527754) scale(0.1 -0.1)">
       <use xlink:href="#DejaVuSans-30"/>
       <use xlink:href="#DejaVuSans-2e" transform="translate(63.623047 0)"/>
       <use xlink:href="#DejaVuSans-32" transform="translate(95.410156 0)"/>
      </g>
     </g>
    </g>
    <g id="ytick_5">
     <g id="line2d_21">
      <path d="M 52.160938 46.124347 
L 561.360937 46.124347 
" clip-path="url(#pd842207e96)" style="fill: none; stroke: #b0b0b0; stroke-width: 0.8; stroke-linecap: square"/>
     </g>
     <g id="line2d_22">
      <g>
       <use xlink:href="#m150745bc42" x="52.160938" y="46.124347" style="stroke: #000000; stroke-width: 0.8"/>
      </g>
     </g>
     <g id="text_12">
      <!-- 0.4 -->
      <g transform="translate(29.257813 49.923566) scale(0.1 -0.1)">
       <use xlink:href="#DejaVuSans-30"/>
       <use xlink:href="#DejaVuSans-2e" transform="translate(63.623047 0)"/>
       <use xlink:href="#DejaVuSans-34" transform="translate(95.410156 0)"/>
      </g>
     </g>
    </g>
    <g id="text_13">
     <!-- Reactive Power Flexibility [p.u.] -->
     <g transform="translate(14.798438 293.510179) rotate(-90) scale(0.1 -0.1)">
      <defs>
       <path id="DejaVuSans-52" d="M 2841 2188 
Q 3044 2119 3236 1894 
Q 3428 1669 3622 1275 
L 4263 0 
L 3584 0 
L 2988 1197 
Q 2756 1666 2539 1819 
Q 2322 1972 1947 1972 
L 1259 1972 
L 1259 0 
L 628 0 
L 628 4666 
L 2053 4666 
Q 2853 4666 3247 4331 
Q 3641 3997 3641 3322 
Q 3641 2881 3436 2590 
Q 3231 2300 2841 2188 
z
M 1259 4147 
L 1259 2491 
L 2053 2491 
Q 2509 2491 2742 2702 
Q 2975 2913 2975 3322 
Q 2975 3731 2742 3939 
Q 2509 4147 2053 4147 
L 1259 4147 
z
" transform="scale(0.015625)"/>
       <path id="DejaVuSans-61" d="M 2194 1759 
Q 1497 1759 1228 1600 
Q 959 1441 959 1056 
Q 959 750 1161 570 
Q 1363 391 1709 391 
Q 2188 391 2477 730 
Q 2766 1069 2766 1631 
L 2766 1759 
L 2194 1759 
z
M 3341 1997 
L 3341 0 
L 2766 0 
L 2766 531 
Q 2569 213 2275 61 
Q 1981 -91 1556 -91 
Q 1019 -91 701 211 
Q 384 513 384 1019 
Q 384 1609 779 1909 
Q 1175 2209 1959 2209 
L 2766 2209 
L 2766 2266 
Q 2766 2663 2505 2880 
Q 2244 3097 1772 3097 
Q 1472 3097 1187 3025 
Q 903 2953 641 2809 
L 641 3341 
Q 956 3463 1253 3523 
Q 1550 3584 1831 3584 
Q 2591 3584 2966 3190 
Q 3341 2797 3341 1997 
z
" transform="scale(0.015625)"/>
      </defs>
      <use xlink:href="#DejaVuSans-52"/>
      <use xlink:href="#DejaVuSans-65" transform="translate(64.982422 0)"/>
      <use xlink:href="#DejaVuSans-61" transform="translate(126.505859 0)"/>
      <use xlink:href="#DejaVuSans-63" transform="translate(187.785156 0)"/>
      <use xlink:href="#DejaVuSans-74" transform="translate(242.765625 0)"/>
      <use xlink:href="#DejaVuSans-69" transform="translate(281.974609 0)"/>
      <use xlink:href="#DejaVuSans-76" transform="translate(309.757812 0)"/>
      <use xlink:href="#DejaVuSans-65" transform="translate(368.9375 0)"/>
      <use xlink:href="#DejaVuSans-20" transform="translate(430.460938 0)"/>
      <use xlink:href="#DejaVuSans-50" transform="translate(462.248047 0)"/>
      <use xlink:href="#DejaVuSans-6f" transform="translate(518.925781 0)"/>
      <use xlink:href="#DejaVuSans-77" transform="translate(580.107422 0)"/>
      <use xlink:href="#DejaVuSans-65" transform="translate(661.894531 0)"/>
      <use xlink:href="#DejaVuSans-72" transform="translate(723.417969 0)"/>
      <use xlink:href="#DejaVuSans-20" transform="translate(764.53125 0)"/>
      <use xlink:href="#DejaVuSans-46" transform="translate(796.318359 0)"/>
      <use xlink:href="#DejaVuSans-6c" transform="translate(853.837891 0)"/>
      <use xlink:href="#DejaVuSans-65" transform="translate(881.621094 0)"/>
      <use xlink:href="#DejaVuSans-78" transform="translate(941.394531 0)"/>
      <use xlink:href="#DejaVuSans-69" transform="translate(1000.574219 0)"/>
      <use xlink:href="#DejaVuSans-62" transform="translate(1028.357422 0)"/>
      <use xlink:href="#DejaVuSans-69" transform="translate(1091.833984 0)"/>
      <use xlink:href="#DejaVuSans-6c" transform="translate(1119.617188 0)"/>
      <use xlink:href="#DejaVuSans-69" transform="translate(1147.400391 0)"/>
      <use xlink:href="#DejaVuSans-74" transform="translate(1175.183594 0)"/>
      <use xlink:href="#DejaVuSans-79" transform="translate(1214.392578 0)"/>
      <use xlink:href="#DejaVuSans-20" transform="translate(1273.572266 0)"/>
      <use xlink:href="#DejaVuSans-5b" transform="translate(1305.359375 0)"/>
      <use xlink:href="#DejaVuSans-70" transform="translate(1344.373047 0)"/>
      <use xlink:href="#DejaVuSans-2e" transform="translate(1407.849609 0)"/>
      <use xlink:href="#DejaVuSans-75" transform="translate(1439.636719 0)"/>
      <use xlink:href="#DejaVuSans-2e" transform="translate(1503.015625 0)"/>
      <use xlink:href="#DejaVuSans-5d" transform="translate(1534.802734 0)"/>
     </g>
    </g>
   </g>
   <g id="patch_3">
    <path d="M 397.400466 386.427934 
L 209.905607 377.515246 
L 178.52559 368.001962 
L 149.621853 352.554427 
L 124.116565 331.593595 
L 103.473118 306.397941 
L 87.992261 277.408451 
L 78.516759 246.127411 
L 75.306392 213.511395 
L 78.521805 180.520811 
L 103.487164 120.245494 
L 124.28177 94.907463 
L 149.647355 74.100366 
L 178.583644 58.643035 
L 209.891913 49.146933 
L 268.312502 45.933147 
L 407.987476 49.152369 
L 439.364826 58.660527 
L 468.666307 74.304757 
L 493.984731 95.075778 
L 514.803908 120.439769 
L 530.25037 149.334762 
L 538.165281 173.156713 
L 538.215483 174.441677 
L 537.913646 177.085582 
L 534.983176 185.940233 
L 438.528894 342.598651 
L 418.973306 367.642992 
z
" clip-path="url(#pd842207e96)" style="fill: #a6cee4; opacity: 0.45; stroke: #a6cee4; stroke-linejoin: miter"/>
   </g>
   <g id="patch_4">
    <path d="M 396.645233 384.051005 
L 215.376026 379.710878 
L 212.700971 371.481481 
L 216.873381 47.673744 
L 288.682784 45.959037 
L 400.802057 46.762321 
L 401.448158 47.44574 
L 411.48151 379.647846 
L 404.965197 383.12374 
z
" clip-path="url(#pd842207e96)" style="fill: #65aad4; opacity: 0.45; stroke: #65aad4; stroke-linejoin: miter"/>
   </g>
   <g id="patch_5">
    <path d="M 403.608832 389.819362 
L 224.796849 382.189258 
L 271.010998 45.925708 
L 385.634565 46.242984 
L 387.260818 46.614616 
L 411.17509 386.259998 
z
" clip-path="url(#pd842207e96)" style="fill: #3383be; opacity: 0.45; stroke: #3383be; stroke-linejoin: miter"/>
   </g>
   <g id="patch_6">
    <path d="M 352.974095 381.271547 
L 275.063561 381.147856 
L 275.251648 45.989376 
L 348.933914 39.818184 
L 353.67723 45.778968 
z
" clip-path="url(#pd842207e96)" style="fill: #0d57a1; opacity: 0.45; stroke: #0d57a1; stroke-linejoin: miter"/>
   </g>
   <g id="line2d_23">
    <path d="M 397.400466 386.427934 
L 209.905607 377.515246 
L 178.52559 368.001962 
L 149.621853 352.554427 
L 124.116565 331.593595 
L 103.473118 306.397941 
L 87.992261 277.408451 
L 78.516759 246.127411 
L 75.306392 213.511395 
L 78.521805 180.520811 
L 103.487164 120.245494 
L 124.28177 94.907463 
L 149.647355 74.100366 
L 178.583644 58.643035 
L 209.891913 49.146933 
L 268.312502 45.933147 
L 407.987476 49.152369 
L 439.364826 58.660527 
L 468.666307 74.304757 
L 493.984731 95.075778 
L 514.803908 120.439769 
L 530.25037 149.334762 
L 538.165281 173.156713 
L 538.215483 174.441677 
L 537.913646 177.085582 
L 534.983176 185.940233 
L 438.528894 342.598651 
L 418.973306 367.642992 
L 397.400466 386.427934 
" clip-path="url(#pd842207e96)" style="fill: none; stroke: #a6cee4; stroke-width: 1.2; stroke-linecap: square"/>
   </g>
   <g id="line2d_24">
    <path d="M 396.645233 384.051005 
L 215.376026 379.710878 
L 212.700971 371.481481 
L 216.873381 47.673744 
L 288.682784 45.959037 
L 400.802057 46.762321 
L 401.448158 47.44574 
L 411.48151 379.647846 
L 404.965197 383.12374 
L 396.645233 384.051005 
" clip-path="url(#pd842207e96)" style="fill: none; stroke: #65aad4; stroke-width: 1.2; stroke-linecap: square"/>
   </g>
   <g id="line2d_25">
    <path d="M 403.608832 389.819362 
L 224.796849 382.189258 
L 271.010998 45.925708 
L 385.634565 46.242984 
L 387.260818 46.614616 
L 411.17509 386.259998 
L 403.608832 389.819362 
" clip-path="url(#pd842207e96)" style="fill: none; stroke: #3383be; stroke-width: 1.2; stroke-linecap: square"/>
   </g>
   <g id="line2d_26">
    <path d="M 352.974095 381.271547 
L 275.063561 381.147856 
L 275.251648 45.989376 
L 348.933914 39.818184 
L 353.67723 45.778968 
L 352.974095 381.271547 
" clip-path="url(#pd842207e96)" style="fill: none; stroke: #0d57a1; stroke-width: 1.2; stroke-linecap: square"/>
   </g>
   <g id="line2d_27">
    <path d="M 52.160938 213.332724 
L 561.360937 213.332724 
" clip-path="url(#pd842207e96)" style="fill: none; stroke: #808080; stroke-width: 0.5; stroke-linecap: square"/>
   </g>
   <g id="line2d_28">
    <path d="M 314.252444 407.319421 
L 314.252444 22.318125 
" clip-path="url(#pd842207e96)" style="fill: none; stroke: #808080; stroke-width: 0.5; stroke-linecap: square"/>
   </g>
   <g id="patch_7">
    <path d="M 52.160938 407.319421 
L 52.160938 22.318125 
" style="fill: none; stroke: #000000; stroke-width: 0.8; stroke-linejoin: miter; stroke-linecap: square"/>
   </g>
   <g id="patch_8">
    <path d="M 561.360937 407.319421 
L 561.360937 22.318125 
" style="fill: none; stroke: #000000; stroke-width: 0.8; stroke-linejoin: miter; stroke-linecap: square"/>
   </g>
   <g id="patch_9">
    <path d="M 52.160937 407.319421 
L 561.360937 407.319421 
" style="fill: none; stroke: #000000; stroke-width: 0.8; stroke-linejoin: miter; stroke-linecap: square"/>
   </g>
   <g id="patch_10">
    <path d="M 52.160937 22.318125 
L 561.360937 22.318125 
" style="fill: none; stroke: #000000; stroke-width: 0.8; stroke-linejoin: miter; stroke-linecap: square"/>
   </g>
   <g id="PathCollection_1">
    <defs>
     <path id="mb1c68e9679" d="M 0 2.12132 
C 0.562581 2.12132 1.102195 1.897805 1.5 1.5 
C 1.897805 1.102195 2.12132 0.562581 2.12132 0 
C 2.12132 -0.562581 1.897805 -1.102195 1.5 -1.5 
C 1.102195 -1.897805 0.562581 -2.12132 0 -2.12132 
C -0.562581 -2.12132 -1.102195 -1.897805 -1.5 -1.5 
C -1.897805 -1.102195 -2.12132 -0.562581 -2.12132 0 
C -2.12132 0.562581 -1.897805 1.102195 -1.5 1.5 
C -1.102195 1.897805 -0.562581 2.12132 0 2.12132 
z
" style="stroke: #000000; stroke-width: 0.3"/>
    </defs>
    <g clip-path="url(#pd842207e96)">
     <use xlink:href="#mb1c68e9679" x="538.215483" y="174.441677" style="fill: #a6cee4; stroke: #000000; stroke-width: 0.3"/>
     <use xlink:href="#mb1c68e9679" x="538.165281" y="173.156713" style="fill: #a6cee4; stroke: #000000; stroke-width: 0.3"/>
     <use xlink:href="#mb1c68e9679" x="530.25037" y="149.334762" style="fill: #a6cee4; stroke: #000000; stroke-width: 0.3"/>
     <use xlink:href="#mb1c68e9679" x="514.803908" y="120.439769" style="fill: #a6cee4; stroke: #000000; stroke-width: 0.3"/>
     <use xlink:href="#mb1c68e9679" x="493.984731" y="95.075778" style="fill: #a6cee4; stroke: #000000; stroke-width: 0.3"/>
     <use xlink:href="#mb1c68e9679" x="468.666307" y="74.304757" style="fill: #a6cee4; stroke: #000000; stroke-width: 0.3"/>
     <use xlink:href="#mb1c68e9679" x="439.364826" y="58.660527" style="fill: #a6cee4; stroke: #000000; stroke-width: 0.3"/>
     <use xlink:href="#mb1c68e9679" x="407.987476" y="49.152369" style="fill: #a6cee4; stroke: #000000; stroke-width: 0.3"/>
     <use xlink:href="#mb1c68e9679" x="268.312502" y="45.933147" style="fill: #a6cee4; stroke: #000000; stroke-width: 0.3"/>
     <use xlink:href="#mb1c68e9679" x="209.891913" y="49.146933" style="fill: #a6cee4; stroke: #000000; stroke-width: 0.3"/>
     <use xlink:href="#mb1c68e9679" x="178.583644" y="58.643035" style="fill: #a6cee4; stroke: #000000; stroke-width: 0.3"/>
     <use xlink:href="#mb1c68e9679" x="149.647355" y="74.100366" style="fill: #a6cee4; stroke: #000000; stroke-width: 0.3"/>
     <use xlink:href="#mb1c68e9679" x="124.28177" y="94.907463" style="fill: #a6cee4; stroke: #000000; stroke-width: 0.3"/>
     <use xlink:href="#mb1c68e9679" x="103.487164" y="120.245494" style="fill: #a6cee4; stroke: #000000; stroke-width: 0.3"/>
     <use xlink:href="#mb1c68e9679" x="78.521805" y="180.520811" style="fill: #a6cee4; stroke: #000000; stroke-width: 0.3"/>
     <use xlink:href="#mb1c68e9679" x="75.306392" y="213.511395" style="fill: #a6cee4; stroke: #000000; stroke-width: 0.3"/>
     <use xlink:href="#mb1c68e9679" x="78.516759" y="246.127411" style="fill: #a6cee4; stroke: #000000; stroke-width: 0.3"/>
     <use xlink:href="#mb1c68e9679" x="87.992261" y="277.408451" style="fill: #a6cee4; stroke: #000000; stroke-width: 0.3"/>
     <use xlink:href="#mb1c68e9679" x="103.473118" y="306.397941" style="fill: #a6cee4; stroke: #000000; stroke-width: 0.3"/>
     <use xlink:href="#mb1c68e9679" x="124.116565" y="331.593595" style="fill: #a6cee4; stroke: #000000; stroke-width: 0.3"/>
     <use xlink:href="#mb1c68e9679" x="149.621853" y="352.554427" style="fill: #a6cee4; stroke: #000000; stroke-width: 0.3"/>
     <use xlink:href="#mb1c68e9679" x="178.52559" y="368.001962" style="fill: #a6cee4; stroke: #000000; stroke-width: 0.3"/>
     <use xlink:href="#mb1c68e9679" x="209.905607" y="377.515246" style="fill: #a6cee4; stroke: #000000; stroke-width: 0.3"/>
     <use xlink:href="#mb1c68e9679" x="318.234577" y="380.732787" style="fill: #a6cee4; stroke: #000000; stroke-width: 0.3"/>
     <use xlink:href="#mb1c68e9679" x="397.400466" y="386.427934" style="fill: #a6cee4; stroke: #000000; stroke-width: 0.3"/>
     <use xlink:href="#mb1c68e9679" x="404.328741" y="378.039193" style="fill: #a6cee4; stroke: #000000; stroke-width: 0.3"/>
     <use xlink:href="#mb1c68e9679" x="411.000722" y="374.344225" style="fill: #a6cee4; stroke: #000000; stroke-width: 0.3"/>
     <use xlink:href="#mb1c68e9679" x="418.973306" y="367.642992" style="fill: #a6cee4; stroke: #000000; stroke-width: 0.3"/>
     <use xlink:href="#mb1c68e9679" x="438.528894" y="342.598651" style="fill: #a6cee4; stroke: #000000; stroke-width: 0.3"/>
     <use xlink:href="#mb1c68e9679" x="534.983176" y="185.940233" style="fill: #a6cee4; stroke: #000000; stroke-width: 0.3"/>
     <use xlink:href="#mb1c68e9679" x="537.913646" y="177.085582" style="fill: #a6cee4; stroke: #000000; stroke-width: 0.3"/>
    </g>
   </g>
   <g id="PathCollection_2">
    <defs>
     <path id="m9194b0604e" d="M 0 2.12132 
C 0.562581 2.12132 1.102195 1.897805 1.5 1.5 
C 1.897805 1.102195 2.12132 0.562581 2.12132 0 
C 2.12132 -0.562581 1.897805 -1.102195 1.5 -1.5 
C 1.102195 -1.897805 0.562581 -2.12132 0 -2.12132 
C -0.562581 -2.12132 -1.102195 -1.897805 -1.5 -1.5 
C -1.897805 -1.102195 -2.12132 -0.562581 -2.12132 0 
C -2.12132 0.562581 -1.897805 1.102195 -1.5 1.5 
C -1.102195 1.897805 -0.562581 2.12132 0 2.12132 
z
" style="stroke: #000000; stroke-width: 0.3"/>
    </defs>
    <g clip-path="url(#pd842207e96)">
     <use xlink:href="#m9194b0604e" x="400.855309" y="50.749364" style="fill: #65aad4; stroke: #000000; stroke-width: 0.3"/>
     <use xlink:href="#m9194b0604e" x="400.854249" y="48.015071" style="fill: #65aad4; stroke: #000000; stroke-width: 0.3"/>
     <use xlink:href="#m9194b0604e" x="401.448158" y="47.44574" style="fill: #65aad4; stroke: #000000; stroke-width: 0.3"/>
     <use xlink:href="#m9194b0604e" x="400.802057" y="46.762321" style="fill: #65aad4; stroke: #000000; stroke-width: 0.3"/>
     <use xlink:href="#m9194b0604e" x="400.855278" y="48.016409" style="fill: #65aad4; stroke: #000000; stroke-width: 0.3"/>
     <use xlink:href="#m9194b0604e" x="400.474248" y="47.569301" style="fill: #65aad4; stroke: #000000; stroke-width: 0.3"/>
     <use xlink:href="#m9194b0604e" x="400.565556" y="47.937872" style="fill: #65aad4; stroke: #000000; stroke-width: 0.3"/>
     <use xlink:href="#m9194b0604e" x="288.682784" y="45.959037" style="fill: #65aad4; stroke: #000000; stroke-width: 0.3"/>
     <use xlink:href="#m9194b0604e" x="216.873381" y="47.673744" style="fill: #65aad4; stroke: #000000; stroke-width: 0.3"/>
     <use xlink:href="#m9194b0604e" x="217.638277" y="48.110034" style="fill: #65aad4; stroke: #000000; stroke-width: 0.3"/>
     <use xlink:href="#m9194b0604e" x="217.434293" y="371.955803" style="fill: #65aad4; stroke: #000000; stroke-width: 0.3"/>
     <use xlink:href="#m9194b0604e" x="217.191629" y="378.514599" style="fill: #65aad4; stroke: #000000; stroke-width: 0.3"/>
     <use xlink:href="#m9194b0604e" x="212.700971" y="371.481481" style="fill: #65aad4; stroke: #000000; stroke-width: 0.3"/>
     <use xlink:href="#m9194b0604e" x="216.608155" y="379.136518" style="fill: #65aad4; stroke: #000000; stroke-width: 0.3"/>
     <use xlink:href="#m9194b0604e" x="217.584903" y="378.347759" style="fill: #65aad4; stroke: #000000; stroke-width: 0.3"/>
     <use xlink:href="#m9194b0604e" x="215.376026" y="379.710878" style="fill: #65aad4; stroke: #000000; stroke-width: 0.3"/>
     <use xlink:href="#m9194b0604e" x="217.525057" y="379.360687" style="fill: #65aad4; stroke: #000000; stroke-width: 0.3"/>
     <use xlink:href="#m9194b0604e" x="218.620996" y="378.24783" style="fill: #65aad4; stroke: #000000; stroke-width: 0.3"/>
     <use xlink:href="#m9194b0604e" x="359.878321" y="380.747029" style="fill: #65aad4; stroke: #000000; stroke-width: 0.3"/>
     <use xlink:href="#m9194b0604e" x="396.645233" y="384.051005" style="fill: #65aad4; stroke: #000000; stroke-width: 0.3"/>
     <use xlink:href="#m9194b0604e" x="411.48151" y="379.647846" style="fill: #65aad4; stroke: #000000; stroke-width: 0.3"/>
     <use xlink:href="#m9194b0604e" x="404.965197" y="383.12374" style="fill: #65aad4; stroke: #000000; stroke-width: 0.3"/>
     <use xlink:href="#m9194b0604e" x="401.349806" y="379.396111" style="fill: #65aad4; stroke: #000000; stroke-width: 0.3"/>
     <use xlink:href="#m9194b0604e" x="402.104588" y="382.547478" style="fill: #65aad4; stroke: #000000; stroke-width: 0.3"/>
     <use xlink:href="#m9194b0604e" x="402.229238" y="379.79589" style="fill: #65aad4; stroke: #000000; stroke-width: 0.3"/>
    </g>
   </g>
   <g id="PathCollection_3">
    <defs>
     <path id="m1c55ef888b" d="M 0 2.12132 
C 0.562581 2.12132 1.102195 1.897805 1.5 1.5 
C 1.897805 1.102195 2.12132 0.562581 2.12132 0 
C 2.12132 -0.562581 1.897805 -1.102195 1.5 -1.5 
C 1.102195 -1.897805 0.562581 -2.12132 0 -2.12132 
C -0.562581 -2.12132 -1.102195 -1.897805 -1.5 -1.5 
C -1.897805 -1.102195 -2.12132 -0.562581 -2.12132 0 
C -2.12132 0.562581 -1.897805 1.102195 -1.5 1.5 
C -1.102195 1.897805 -0.562581 2.12132 0 2.12132 
z
" style="stroke: #000000; stroke-width: 0.3"/>
    </defs>
    <g clip-path="url(#pd842207e96)">
     <use xlink:href="#m1c55ef888b" x="385.963645" y="52.633927" style="fill: #3383be; stroke: #000000; stroke-width: 0.3"/>
     <use xlink:href="#m1c55ef888b" x="385.678478" y="46.346286" style="fill: #3383be; stroke: #000000; stroke-width: 0.3"/>
     <use xlink:href="#m1c55ef888b" x="385.766902" y="46.602022" style="fill: #3383be; stroke: #000000; stroke-width: 0.3"/>
     <use xlink:href="#m1c55ef888b" x="387.260818" y="46.614616" style="fill: #3383be; stroke: #000000; stroke-width: 0.3"/>
     <use xlink:href="#m1c55ef888b" x="385.634565" y="46.242984" style="fill: #3383be; stroke: #000000; stroke-width: 0.3"/>
     <use xlink:href="#m1c55ef888b" x="385.270641" y="47.507713" style="fill: #3383be; stroke: #000000; stroke-width: 0.3"/>
     <use xlink:href="#m1c55ef888b" x="385.58929" y="46.681343" style="fill: #3383be; stroke: #000000; stroke-width: 0.3"/>
     <use xlink:href="#m1c55ef888b" x="271.010998" y="45.925708" style="fill: #3383be; stroke: #000000; stroke-width: 0.3"/>
     <use xlink:href="#m1c55ef888b" x="236.034374" y="379.009139" style="fill: #3383be; stroke: #000000; stroke-width: 0.3"/>
     <use xlink:href="#m1c55ef888b" x="236.572964" y="380.617111" style="fill: #3383be; stroke: #000000; stroke-width: 0.3"/>
     <use xlink:href="#m1c55ef888b" x="236.695494" y="379.84269" style="fill: #3383be; stroke: #000000; stroke-width: 0.3"/>
     <use xlink:href="#m1c55ef888b" x="236.174277" y="380.499055" style="fill: #3383be; stroke: #000000; stroke-width: 0.3"/>
     <use xlink:href="#m1c55ef888b" x="236.098819" y="380.776235" style="fill: #3383be; stroke: #000000; stroke-width: 0.3"/>
     <use xlink:href="#m1c55ef888b" x="235.715897" y="380.382141" style="fill: #3383be; stroke: #000000; stroke-width: 0.3"/>
     <use xlink:href="#m1c55ef888b" x="236.604964" y="380.482715" style="fill: #3383be; stroke: #000000; stroke-width: 0.3"/>
     <use xlink:href="#m1c55ef888b" x="224.796849" y="382.189258" style="fill: #3383be; stroke: #000000; stroke-width: 0.3"/>
     <use xlink:href="#m1c55ef888b" x="338.879799" y="380.699381" style="fill: #3383be; stroke: #000000; stroke-width: 0.3"/>
     <use xlink:href="#m1c55ef888b" x="403.608832" y="389.819362" style="fill: #3383be; stroke: #000000; stroke-width: 0.3"/>
     <use xlink:href="#m1c55ef888b" x="411.17509" y="386.259998" style="fill: #3383be; stroke: #000000; stroke-width: 0.3"/>
     <use xlink:href="#m1c55ef888b" x="400.885032" y="363.449976" style="fill: #3383be; stroke: #000000; stroke-width: 0.3"/>
    </g>
   </g>
   <g id="PathCollection_4">
    <defs>
     <path id="mcb1eb9b5f9" d="M 0 2.12132 
C 0.562581 2.12132 1.102195 1.897805 1.5 1.5 
C 1.897805 1.102195 2.12132 0.562581 2.12132 0 
C 2.12132 -0.562581 1.897805 -1.102195 1.5 -1.5 
C 1.102195 -1.897805 0.562581 -2.12132 0 -2.12132 
C -0.562581 -2.12132 -1.102195 -1.897805 -1.5 -1.5 
C -1.897805 -1.102195 -2.12132 -0.562581 -2.12132 0 
C -2.12132 0.562581 -1.897805 1.102195 -1.5 1.5 
C -1.102195 1.897805 -0.562581 2.12132 0 2.12132 
z
" style="stroke: #000000; stroke-width: 0.3"/>
    </defs>
    <g clip-path="url(#pd842207e96)">
     <use xlink:href="#mcb1eb9b5f9" x="352.658605" y="46.930133" style="fill: #0d57a1; stroke: #000000; stroke-width: 0.3"/>
     <use xlink:href="#mcb1eb9b5f9" x="352.701542" y="47.546653" style="fill: #0d57a1; stroke: #000000; stroke-width: 0.3"/>
     <use xlink:href="#mcb1eb9b5f9" x="348.933914" y="39.818184" style="fill: #0d57a1; stroke: #000000; stroke-width: 0.3"/>
     <use xlink:href="#mcb1eb9b5f9" x="352.495177" y="44.333352" style="fill: #0d57a1; stroke: #000000; stroke-width: 0.3"/>
     <use xlink:href="#mcb1eb9b5f9" x="353.67723" y="45.778968" style="fill: #0d57a1; stroke: #000000; stroke-width: 0.3"/>
     <use xlink:href="#mcb1eb9b5f9" x="275.427338" y="46.123095" style="fill: #0d57a1; stroke: #000000; stroke-width: 0.3"/>
     <use xlink:href="#mcb1eb9b5f9" x="275.39337" y="46.117341" style="fill: #0d57a1; stroke: #000000; stroke-width: 0.3"/>
     <use xlink:href="#mcb1eb9b5f9" x="275.251648" y="45.989376" style="fill: #0d57a1; stroke: #000000; stroke-width: 0.3"/>
     <use xlink:href="#mcb1eb9b5f9" x="275.298669" y="46.097799" style="fill: #0d57a1; stroke: #000000; stroke-width: 0.3"/>
     <use xlink:href="#mcb1eb9b5f9" x="275.409467" y="46.218764" style="fill: #0d57a1; stroke: #000000; stroke-width: 0.3"/>
     <use xlink:href="#mcb1eb9b5f9" x="275.46553" y="46.676073" style="fill: #0d57a1; stroke: #000000; stroke-width: 0.3"/>
     <use xlink:href="#mcb1eb9b5f9" x="275.253851" y="380.449482" style="fill: #0d57a1; stroke: #000000; stroke-width: 0.3"/>
     <use xlink:href="#mcb1eb9b5f9" x="275.063561" y="381.147856" style="fill: #0d57a1; stroke: #000000; stroke-width: 0.3"/>
     <use xlink:href="#mcb1eb9b5f9" x="276.016824" y="380.644141" style="fill: #0d57a1; stroke: #000000; stroke-width: 0.3"/>
     <use xlink:href="#mcb1eb9b5f9" x="349.989777" y="378.558585" style="fill: #0d57a1; stroke: #000000; stroke-width: 0.3"/>
     <use xlink:href="#mcb1eb9b5f9" x="352.270334" y="380.315754" style="fill: #0d57a1; stroke: #000000; stroke-width: 0.3"/>
     <use xlink:href="#mcb1eb9b5f9" x="352.807145" y="380.168271" style="fill: #0d57a1; stroke: #000000; stroke-width: 0.3"/>
     <use xlink:href="#mcb1eb9b5f9" x="352.974095" y="381.271547" style="fill: #0d57a1; stroke: #000000; stroke-width: 0.3"/>
     <use xlink:href="#mcb1eb9b5f9" x="352.288077" y="379.483459" style="fill: #0d57a1; stroke: #000000; stroke-width: 0.3"/>
     <use xlink:href="#mcb1eb9b5f9" x="352.912678" y="380.2938" style="fill: #0d57a1; stroke: #000000; stroke-width: 0.3"/>
    </g>
   </g>
   <g id="text_14">
    <!-- Minkowski multi-timestep FFOR - with_battery, start 04-01_12-00 -->
    <g transform="translate(111.203125 16.318125) scale(0.12 -0.12)">
     <defs>
      <path id="DejaVuSans-4d" d="M 628 4666 
L 1569 4666 
L 2759 1491 
L 3956 4666 
L 4897 4666 
L 4897 0 
L 4281 0 
L 4281 4097 
L 3078 897 
L 2444 897 
L 1241 4097 
L 1241 0 
L 628 0 
L 628 4666 
z
" transform="scale(0.015625)"/>
      <path id="DejaVuSans-6e" d="M 3513 2113 
L 3513 0 
L 2938 0 
L 2938 2094 
Q 2938 2591 2744 2837 
Q 2550 3084 2163 3084 
Q 1697 3084 1428 2787 
Q 1159 2491 1159 1978 
L 1159 0 
L 581 0 
L 581 3500 
L 1159 3500 
L 1159 2956 
Q 1366 3272 1645 3428 
Q 1925 3584 2291 3584 
Q 2894 3584 3203 3211 
Q 3513 2838 3513 2113 
z
" transform="scale(0.015625)"/>
      <path id="DejaVuSans-6b" d="M 581 4863 
L 1159 4863 
L 1159 1991 
L 2875 3500 
L 3609 3500 
L 1753 1863 
L 3688 0 
L 2938 0 
L 1159 1709 
L 1159 0 
L 581 0 
L 581 4863 
z
" transform="scale(0.015625)"/>
      <path id="DejaVuSans-73" d="M 2834 3397 
L 2834 2853 
Q 2591 2978 2328 3040 
Q 2066 3103 1784 3103 
Q 1356 3103 1142 2972 
Q 928 2841 928 2578 
Q 928 2378 1081 2264 
Q 1234 2150 1697 2047 
L 1894 2003 
Q 2506 1872 2764 1633 
Q 3022 1394 3022 966 
Q 3022 478 2636 193 
Q 2250 -91 1575 -91 
Q 1294 -91 989 -36 
Q 684 19 347 128 
L 347 722 
Q 666 556 975 473 
Q 1284 391 1588 391 
Q 1994 391 2212 530 
Q 2431 669 2431 922 
Q 2431 1156 2273 1281 
Q 2116 1406 1581 1522 
L 1381 1569 
Q 847 1681 609 1914 
Q 372 2147 372 2553 
Q 372 3047 722 3315 
Q 1072 3584 1716 3584 
Q 2034 3584 2315 3537 
Q 2597 3491 2834 3397 
z
" transform="scale(0.015625)"/>
      <path id="DejaVuSans-6d" d="M 3328 2828 
Q 3544 3216 3844 3400 
Q 4144 3584 4550 3584 
Q 5097 3584 5394 3201 
Q 5691 2819 5691 2113 
L 5691 0 
L 5113 0 
L 5113 2094 
Q 5113 2597 4934 2840 
Q 4756 3084 4391 3084 
Q 3944 3084 3684 2787 
Q 3425 2491 3425 1978 
L 3425 0 
L 2847 0 
L 2847 2094 
Q 2847 2600 2669 2842 
Q 2491 3084 2119 3084 
Q 1678 3084 1418 2786 
Q 1159 2488 1159 1978 
L 1159 0 
L 581 0 
L 581 3500 
L 1159 3500 
L 1159 2956 
Q 1356 3278 1631 3431 
Q 1906 3584 2284 3584 
Q 2666 3584 2933 3390 
Q 3200 3197 3328 2828 
z
" transform="scale(0.015625)"/>
      <path id="DejaVuSans-2d" d="M 313 2009 
L 1997 2009 
L 1997 1497 
L 313 1497 
L 313 2009 
z
" transform="scale(0.015625)"/>
      <path id="DejaVuSans-4f" d="M 2522 4238 
Q 1834 4238 1429 3725 
Q 1025 3213 1025 2328 
Q 1025 1447 1429 934 
Q 1834 422 2522 422 
Q 3209 422 3611 934 
Q 4013 1447 4013 2328 
Q 4013 3213 3611 3725 
Q 3209 4238 2522 4238 
z
M 2522 4750 
Q 3503 4750 4090 4092 
Q 4678 3434 4678 2328 
Q 4678 1225 4090 567 
Q 3503 -91 2522 -91 
Q 1538 -91 948 565 
Q 359 1222 359 2328 
Q 359 3434 948 4092 
Q 1538 4750 2522 4750 
z
" transform="scale(0.015625)"/>
      <path id="DejaVuSans-68" d="M 3513 2113 
L 3513 0 
L 2938 0 
L 2938 2094 
Q 2938 2591 2744 2837 
Q 2550 3084 2163 3084 
Q 1697 3084 1428 2787 
Q 1159 2491 1159 1978 
L 1159 0 
L 581 0 
L 581 4863 
L 1159 4863 
L 1159 2956 
Q 1366 3272 1645 3428 
Q 1925 3584 2291 3584 
Q 2894 3584 3203 3211 
Q 3513 2838 3513 2113 
z
" transform="scale(0.015625)"/>
      <path id="DejaVuSans-5f" d="M 3263 -1063 
L 3263 -1509 
L -63 -1509 
L -63 -1063 
L 3263 -1063 
z
" transform="scale(0.015625)"/>
      <path id="DejaVuSans-2c" d="M 750 794 
L 1409 794 
L 1409 256 
L 897 -744 
L 494 -744 
L 750 256 
L 750 794 
z
" transform="scale(0.015625)"/>
      <path id="DejaVuSans-31" d="M 794 531 
L 1825 531 
L 1825 4091 
L 703 3866 
L 703 4441 
L 1819 4666 
L 2450 4666 
L 2450 531 
L 3481 531 
L 3481 0 
L 794 0 
L 794 531 
z
" transform="scale(0.015625)"/>
     </defs>
     <use xlink:href="#DejaVuSans-4d"/>
     <use xlink:href="#DejaVuSans-69" transform="translate(86.279297 0)"/>
     <use xlink:href="#DejaVuSans-6e" transform="translate(114.0625 0)"/>
     <use xlink:href="#DejaVuSans-6b" transform="translate(177.441406 0)"/>
     <use xlink:href="#DejaVuSans-6f" transform="translate(231.726562 0)"/>
     <use xlink:href="#DejaVuSans-77" transform="translate(292.908203 0)"/>
     <use xlink:href="#DejaVuSans-73" transform="translate(374.695312 0)"/>
     <use xlink:href="#DejaVuSans-6b" transform="translate(426.794922 0)"/>
     <use xlink:href="#DejaVuSans-69" transform="translate(484.705078 0)"/>
     <use xlink:href="#DejaVuSans-20" transform="translate(512.488281 0)"/>
     <use xlink:href="#DejaVuSans-6d" transform="translate(544.275391 0)"/>
     <use xlink:href="#DejaVuSans-75" transform="translate(641.6875 0)"/>
     <use xlink:href="#DejaVuSans-6c" transform="translate(705.066406 0)"/>
     <use xlink:href="#DejaVuSans-74" transform="translate(732.849609 0)"/>
     <use xlink:href="#DejaVuSans-69" transform="translate(772.058594 0)"/>
     <use xlink:href="#DejaVuSans-2d" transform="translate(799.841797 0)"/>
     <use xlink:href="#DejaVuSans-74" transform="translate(835.925781 0)"/>
     <use xlink:href="#DejaVuSans-69" transform="translate(875.134766 0)"/>
     <use xlink:href="#DejaVuSans-6d" transform="translate(902.917969 0)"/>
     <use xlink:href="#DejaVuSans-65" transform="translate(1000.330078 0)"/>
     <use xlink:href="#DejaVuSans-73" transform="translate(1061.853516 0)"/>
     <use xlink:href="#DejaVuSans-74" transform="translate(1113.953125 0)"/>
     <use xlink:href="#DejaVuSans-65" transform="translate(1153.162109 0)"/>
     <use xlink:href="#DejaVuSans-70" transform="translate(1214.685547 0)"/>
     <use xlink:href="#DejaVuSans-20" transform="translate(1278.162109 0)"/>
     <use xlink:href="#DejaVuSans-46" transform="translate(1309.949219 0)"/>
     <use xlink:href="#DejaVuSans-46" transform="translate(1367.46875 0)"/>
     <use xlink:href="#DejaVuSans-4f" transform="translate(1424.988281 0)"/>
     <use xlink:href="#DejaVuSans-52" transform="translate(1503.699219 0)"/>
     <use xlink:href="#DejaVuSans-20" transform="translate(1573.181641 0)"/>
     <use xlink:href="#DejaVuSans-2d" transform="translate(1604.96875 0)"/>
     <use xlink:href="#DejaVuSans-20" transform="translate(1641.052734 0)"/>
     <use xlink:href="#DejaVuSans-77" transform="translate(1672.839844 0)"/>
     <use xlink:href="#DejaVuSans-69" transform="translate(1754.626953 0)"/>
     <use xlink:href="#DejaVuSans-74" transform="translate(1782.410156 0)"/>
     <use xlink:href="#DejaVuSans-68" transform="translate(1821.619141 0)"/>
     <use xlink:href="#DejaVuSans-5f" transform="translate(1884.998047 0)"/>
     <use xlink:href="#DejaVuSans-62" transform="translate(1934.998047 0)"/>
     <use xlink:href="#DejaVuSans-61" transform="translate(1998.474609 0)"/>
     <use xlink:href="#DejaVuSans-74" transform="translate(2059.753906 0)"/>
     <use xlink:href="#DejaVuSans-74" transform="translate(2098.962891 0)"/>
     <use xlink:href="#DejaVuSans-65" transform="translate(2138.171875 0)"/>
     <use xlink:href="#DejaVuSans-72" transform="translate(2199.695312 0)"/>
     <use xlink:href="#DejaVuSans-79" transform="translate(2240.808594 0)"/>
     <use xlink:href="#DejaVuSans-2c" transform="translate(2299.988281 0)"/>
     <use xlink:href="#DejaVuSans-20" transform="translate(2331.775391 0)"/>
     <use xlink:href="#DejaVuSans-73" transform="translate(2363.5625 0)"/>
     <use xlink:href="#DejaVuSans-74" transform="translate(2415.662109 0)"/>
     <use xlink:href="#DejaVuSans-61" transform="translate(2454.871094 0)"/>
     <use xlink:href="#DejaVuSans-72" transform="translate(2516.150391 0)"/>
     <use xlink:href="#DejaVuSans-74" transform="translate(2557.263672 0)"/>
     <use xlink:href="#DejaVuSans-20" transform="translate(2596.472656 0)"/>
     <use xlink:href="#DejaVuSans-30" transform="translate(2628.259766 0)"/>
     <use xlink:href="#DejaVuSans-34" transform="translate(2691.882812 0)"/>
     <use xlink:href="#DejaVuSans-2d" transform="translate(2755.505859 0)"/>
     <use xlink:href="#DejaVuSans-30" transform="translate(2791.589844 0)"/>
     <use xlink:href="#DejaVuSans-31" transform="translate(2855.212891 0)"/>
     <use xlink:href="#DejaVuSans-5f" transform="translate(2918.835938 0)"/>
     <use xlink:href="#DejaVuSans-31" transform="translate(2968.835938 0)"/>
     <use xlink:href="#DejaVuSans-32" transform="translate(3032.458984 0)"/>
     <use xlink:href="#DejaVuSans-2d" transform="translate(3096.082031 0)"/>
     <use xlink:href="#DejaVuSans-30" transform="translate(3132.166016 0)"/>
     <use xlink:href="#DejaVuSans-30" transform="translate(3195.789062 0)"/>
    </g>
   </g>
   <g id="PathCollection_5">
    <defs>
     <path id="m12c8f6f10f" d="M -2.95804 5.91608 
L 0 2.95804 
L 2.95804 5.91608 
L 5.91608 2.95804 
L 2.95804 0 
L 5.91608 -2.95804 
L 2.95804 -5.91608 
L 0 -2.95804 
L -2.95804 -5.91608 
L -5.91608 -2.95804 
L -2.95804 0 
L -5.91608 2.95804 
z
" style="stroke: #ff0000"/>
    </defs>
    <g clip-path="url(#pd842207e96)">
     <use xlink:href="#m12c8f6f10f" x="314.252444" y="213.332724" style="fill: #ff0000; stroke: #ff0000"/>
    </g>
   </g>
   <g id="legend_1">
    <g id="patch_11">
     <path d="M 239.978125 253.014085 
L 373.54375 253.014085 
Q 375.54375 253.014085 375.54375 251.014085 
L 375.54375 178.62346 
Q 375.54375 176.62346 373.54375 176.62346 
L 239.978125 176.62346 
Q 237.978125 176.62346 237.978125 178.62346 
L 237.978125 251.014085 
Q 237.978125 253.014085 239.978125 253.014085 
z
" style="fill: #ffffff; opacity: 0.9; stroke: #cccccc; stroke-linejoin: miter"/>
    </g>
    <g id="patch_12">
     <path d="M 241.978125 188.221898 
L 261.978125 188.221898 
L 261.978125 181.221898 
L 241.978125 181.221898 
z
" style="fill: #a6cee4; opacity: 0.45; stroke: #a6cee4; stroke-linejoin: miter"/>
    </g>
    <g id="text_15">
     <!-- d = 1 h  (31/32 dirs) -->
     <g transform="translate(269.978125 188.221898) scale(0.1 -0.1)">
      <defs>
       <path id="DejaVuSans-64" d="M 2906 2969 
L 2906 4863 
L 3481 4863 
L 3481 0 
L 2906 0 
L 2906 525 
Q 2725 213 2448 61 
Q 2172 -91 1784 -91 
Q 1150 -91 751 415 
Q 353 922 353 1747 
Q 353 2572 751 3078 
Q 1150 3584 1784 3584 
Q 2172 3584 2448 3432 
Q 2725 3281 2906 2969 
z
M 947 1747 
Q 947 1113 1208 752 
Q 1469 391 1925 391 
Q 2381 391 2643 752 
Q 2906 1113 2906 1747 
Q 2906 2381 2643 2742 
Q 2381 3103 1925 3103 
Q 1469 3103 1208 2742 
Q 947 2381 947 1747 
z
" transform="scale(0.015625)"/>
       <path id="DejaVuSans-3d" d="M 678 2906 
L 4684 2906 
L 4684 2381 
L 678 2381 
L 678 2906 
z
M 678 1631 
L 4684 1631 
L 4684 1100 
L 678 1100 
L 678 1631 
z
" transform="scale(0.015625)"/>
       <path id="DejaVuSans-28" d="M 1984 4856 
Q 1566 4138 1362 3434 
Q 1159 2731 1159 2009 
Q 1159 1288 1364 580 
Q 1569 -128 1984 -844 
L 1484 -844 
Q 1016 -109 783 600 
Q 550 1309 550 2009 
Q 550 2706 781 3412 
Q 1013 4119 1484 4856 
L 1984 4856 
z
" transform="scale(0.015625)"/>
       <path id="DejaVuSans-33" d="M 2597 2516 
Q 3050 2419 3304 2112 
Q 3559 1806 3559 1356 
Q 3559 666 3084 287 
Q 2609 -91 1734 -91 
Q 1441 -91 1130 -33 
Q 819 25 488 141 
L 488 750 
Q 750 597 1062 519 
Q 1375 441 1716 441 
Q 2309 441 2620 675 
Q 2931 909 2931 1356 
Q 2931 1769 2642 2001 
Q 2353 2234 1838 2234 
L 1294 2234 
L 1294 2753 
L 1863 2753 
Q 2328 2753 2575 2939 
Q 2822 3125 2822 3475 
Q 2822 3834 2567 4026 
Q 2313 4219 1838 4219 
Q 1578 4219 1281 4162 
Q 984 4106 628 3988 
L 628 4550 
Q 988 4650 1302 4700 
Q 1616 4750 1894 4750 
Q 2613 4750 3031 4423 
Q 3450 4097 3450 3541 
Q 3450 3153 3228 2886 
Q 3006 2619 2597 2516 
z
" transform="scale(0.015625)"/>
       <path id="DejaVuSans-2f" d="M 1625 4666 
L 2156 4666 
L 531 -594 
L 0 -594 
L 1625 4666 
z
" transform="scale(0.015625)"/>
       <path id="DejaVuSans-29" d="M 513 4856 
L 1013 4856 
Q 1481 4119 1714 3412 
Q 1947 2706 1947 2009 
Q 1947 1309 1714 600 
Q 1481 -109 1013 -844 
L 513 -844 
Q 928 -128 1133 580 
Q 1338 1288 1338 2009 
Q 1338 2731 1133 3434 
Q 928 4138 513 4856 
z
" transform="scale(0.015625)"/>
      </defs>
      <use xlink:href="#DejaVuSans-64"/>
      <use xlink:href="#DejaVuSans-20" transform="translate(63.476562 0)"/>
      <use xlink:href="#DejaVuSans-3d" transform="translate(95.263672 0)"/>
      <use xlink:href="#DejaVuSans-20" transform="translate(179.052734 0)"/>
      <use xlink:href="#DejaVuSans-31" transform="translate(210.839844 0)"/>
      <use xlink:href="#DejaVuSans-20" transform="translate(274.462891 0)"/>
      <use xlink:href="#DejaVuSans-68" transform="translate(306.25 0)"/>
      <use xlink:href="#DejaVuSans-20" transform="translate(369.628906 0)"/>
      <use xlink:href="#DejaVuSans-20" transform="translate(401.416016 0)"/>
      <use xlink:href="#DejaVuSans-28" transform="translate(433.203125 0)"/>
      <use xlink:href="#DejaVuSans-33" transform="translate(472.216797 0)"/>
      <use xlink:href="#DejaVuSans-31" transform="translate(535.839844 0)"/>
      <use xlink:href="#DejaVuSans-2f" transform="translate(599.462891 0)"/>
      <use xlink:href="#DejaVuSans-33" transform="translate(633.154297 0)"/>
      <use xlink:href="#DejaVuSans-32" transform="translate(696.777344 0)"/>
      <use xlink:href="#DejaVuSans-20" transform="translate(760.400391 0)"/>
      <use xlink:href="#DejaVuSans-64" transform="translate(792.1875 0)"/>
      <use xlink:href="#DejaVuSans-69" transform="translate(855.664062 0)"/>
      <use xlink:href="#DejaVuSans-72" transform="translate(883.447266 0)"/>
      <use xlink:href="#DejaVuSans-73" transform="translate(924.560547 0)"/>
      <use xlink:href="#DejaVuSans-29" transform="translate(976.660156 0)"/>
     </g>
    </g>
    <g id="patch_13">
     <path d="M 241.978125 202.900023 
L 261.978125 202.900023 
L 261.978125 195.900023 
L 241.978125 195.900023 
z
" style="fill: #65aad4; opacity: 0.45; stroke: #65aad4; stroke-linejoin: miter"/>
    </g>
    <g id="text_16">
     <!-- d = 2 h  (25/32 dirs) -->
     <g transform="translate(269.978125 202.900023) scale(0.1 -0.1)">
      <defs>
       <path id="DejaVuSans-35" d="M 691 4666 
L 3169 4666 
L 3169 4134 
L 1269 4134 
L 1269 2991 
Q 1406 3038 1543 3061 
Q 1681 3084 1819 3084 
Q 2600 3084 3056 2656 
Q 3513 2228 3513 1497 
Q 3513 744 3044 326 
Q 2575 -91 1722 -91 
Q 1428 -91 1123 -41 
Q 819 9 494 109 
L 494 744 
Q 775 591 1075 516 
Q 1375 441 1709 441 
Q 2250 441 2565 725 
Q 2881 1009 2881 1497 
Q 2881 1984 2565 2268 
Q 2250 2553 1709 2553 
Q 1456 2553 1204 2497 
Q 953 2441 691 2322 
L 691 4666 
z
" transform="scale(0.015625)"/>
      </defs>
      <use xlink:href="#DejaVuSans-64"/>
      <use xlink:href="#DejaVuSans-20" transform="translate(63.476562 0)"/>
      <use xlink:href="#DejaVuSans-3d" transform="translate(95.263672 0)"/>
      <use xlink:href="#DejaVuSans-20" transform="translate(179.052734 0)"/>
      <use xlink:href="#DejaVuSans-32" transform="translate(210.839844 0)"/>
      <use xlink:href="#DejaVuSans-20" transform="translate(274.462891 0)"/>
      <use xlink:href="#DejaVuSans-68" transform="translate(306.25 0)"/>
      <use xlink:href="#DejaVuSans-20" transform="translate(369.628906 0)"/>
      <use xlink:href="#DejaVuSans-20" transform="translate(401.416016 0)"/>
      <use xlink:href="#DejaVuSans-28" transform="translate(433.203125 0)"/>
      <use xlink:href="#DejaVuSans-32" transform="translate(472.216797 0)"/>
      <use xlink:href="#DejaVuSans-35" transform="translate(535.839844 0)"/>
      <use xlink:href="#DejaVuSans-2f" transform="translate(599.462891 0)"/>
      <use xlink:href="#DejaVuSans-33" transform="translate(633.154297 0)"/>
      <use xlink:href="#DejaVuSans-32" transform="translate(696.777344 0)"/>
      <use xlink:href="#DejaVuSans-20" transform="translate(760.400391 0)"/>
      <use xlink:href="#DejaVuSans-64" transform="translate(792.1875 0)"/>
      <use xlink:href="#DejaVuSans-69" transform="translate(855.664062 0)"/>
      <use xlink:href="#DejaVuSans-72" transform="translate(883.447266 0)"/>
      <use xlink:href="#DejaVuSans-73" transform="translate(924.560547 0)"/>
      <use xlink:href="#DejaVuSans-29" transform="translate(976.660156 0)"/>
     </g>
    </g>
    <g id="patch_14">
     <path d="M 241.978125 217.578148 
L 261.978125 217.578148 
L 261.978125 210.578148 
L 241.978125 210.578148 
z
" style="fill: #3383be; opacity: 0.45; stroke: #3383be; stroke-linejoin: miter"/>
    </g>
    <g id="text_17">
     <!-- d = 4 h  (20/32 dirs) -->
     <g transform="translate(269.978125 217.578148) scale(0.1 -0.1)">
      <use xlink:href="#DejaVuSans-64"/>
      <use xlink:href="#DejaVuSans-20" transform="translate(63.476562 0)"/>
      <use xlink:href="#DejaVuSans-3d" transform="translate(95.263672 0)"/>
      <use xlink:href="#DejaVuSans-20" transform="translate(179.052734 0)"/>
      <use xlink:href="#DejaVuSans-34" transform="translate(210.839844 0)"/>
      <use xlink:href="#DejaVuSans-20" transform="translate(274.462891 0)"/>
      <use xlink:href="#DejaVuSans-68" transform="translate(306.25 0)"/>
      <use xlink:href="#DejaVuSans-20" transform="translate(369.628906 0)"/>
      <use xlink:href="#DejaVuSans-20" transform="translate(401.416016 0)"/>
      <use xlink:href="#DejaVuSans-28" transform="translate(433.203125 0)"/>
      <use xlink:href="#DejaVuSans-32" transform="translate(472.216797 0)"/>
      <use xlink:href="#DejaVuSans-30" transform="translate(535.839844 0)"/>
      <use xlink:href="#DejaVuSans-2f" transform="translate(599.462891 0)"/>
      <use xlink:href="#DejaVuSans-33" transform="translate(633.154297 0)"/>
      <use xlink:href="#DejaVuSans-32" transform="translate(696.777344 0)"/>
      <use xlink:href="#DejaVuSans-20" transform="translate(760.400391 0)"/>
      <use xlink:href="#DejaVuSans-64" transform="translate(792.1875 0)"/>
      <use xlink:href="#DejaVuSans-69" transform="translate(855.664062 0)"/>
      <use xlink:href="#DejaVuSans-72" transform="translate(883.447266 0)"/>
      <use xlink:href="#DejaVuSans-73" transform="translate(924.560547 0)"/>
      <use xlink:href="#DejaVuSans-29" transform="translate(976.660156 0)"/>
     </g>
    </g>
    <g id="patch_15">
     <path d="M 241.978125 232.256273 
L 261.978125 232.256273 
L 261.978125 225.256273 
L 241.978125 225.256273 
z
" style="fill: #0d57a1; opacity: 0.45; stroke: #0d57a1; stroke-linejoin: miter"/>
    </g>
    <g id="text_18">
     <!-- d = 8 h  (20/32 dirs) -->
     <g transform="translate(269.978125 232.256273) scale(0.1 -0.1)">
      <defs>
       <path id="DejaVuSans-38" d="M 2034 2216 
Q 1584 2216 1326 1975 
Q 1069 1734 1069 1313 
Q 1069 891 1326 650 
Q 1584 409 2034 409 
Q 2484 409 2743 651 
Q 3003 894 3003 1313 
Q 3003 1734 2745 1975 
Q 2488 2216 2034 2216 
z
M 1403 2484 
Q 997 2584 770 2862 
Q 544 3141 544 3541 
Q 544 4100 942 4425 
Q 1341 4750 2034 4750 
Q 2731 4750 3128 4425 
Q 3525 4100 3525 3541 
Q 3525 3141 3298 2862 
Q 3072 2584 2669 2484 
Q 3125 2378 3379 2068 
Q 3634 1759 3634 1313 
Q 3634 634 3220 271 
Q 2806 -91 2034 -91 
Q 1263 -91 848 271 
Q 434 634 434 1313 
Q 434 1759 690 2068 
Q 947 2378 1403 2484 
z
M 1172 3481 
Q 1172 3119 1398 2916 
Q 1625 2713 2034 2713 
Q 2441 2713 2670 2916 
Q 2900 3119 2900 3481 
Q 2900 3844 2670 4047 
Q 2441 4250 2034 4250 
Q 1625 4250 1398 4047 
Q 1172 3844 1172 3481 
z
" transform="scale(0.015625)"/>
      </defs>
      <use xlink:href="#DejaVuSans-64"/>
      <use xlink:href="#DejaVuSans-20" transform="translate(63.476562 0)"/>
      <use xlink:href="#DejaVuSans-3d" transform="translate(95.263672 0)"/>
      <use xlink:href="#DejaVuSans-20" transform="translate(179.052734 0)"/>
      <use xlink:href="#DejaVuSans-38" transform="translate(210.839844 0)"/>
      <use xlink:href="#DejaVuSans-20" transform="translate(274.462891 0)"/>
      <use xlink:href="#DejaVuSans-68" transform="translate(306.25 0)"/>
      <use xlink:href="#DejaVuSans-20" transform="translate(369.628906 0)"/>
      <use xlink:href="#DejaVuSans-20" transform="translate(401.416016 0)"/>
      <use xlink:href="#DejaVuSans-28" transform="translate(433.203125 0)"/>
      <use xlink:href="#DejaVuSans-32" transform="translate(472.216797 0)"/>
      <use xlink:href="#DejaVuSans-30" transform="translate(535.839844 0)"/>
      <use xlink:href="#DejaVuSans-2f" transform="translate(599.462891 0)"/>
      <use xlink:href="#DejaVuSans-33" transform="translate(633.154297 0)"/>
      <use xlink:href="#DejaVuSans-32" transform="translate(696.777344 0)"/>
      <use xlink:href="#DejaVuSans-20" transform="translate(760.400391 0)"/>
      <use xlink:href="#DejaVuSans-64" transform="translate(792.1875 0)"/>
      <use xlink:href="#DejaVuSans-69" transform="translate(855.664062 0)"/>
      <use xlink:href="#DejaVuSans-72" transform="translate(883.447266 0)"/>
      <use xlink:href="#DejaVuSans-73" transform="translate(924.560547 0)"/>
      <use xlink:href="#DejaVuSans-29" transform="translate(976.660156 0)"/>
     </g>
    </g>
    <g id="PathCollection_6">
     <g>
      <use xlink:href="#m12c8f6f10f" x="251.978125" y="244.309398" style="fill: #ff0000; stroke: #ff0000"/>
     </g>
    </g>
    <g id="text_19">
     <!-- Baseline (zero flex) -->
     <g transform="translate(269.978125 246.934398) scale(0.1 -0.1)">
      <defs>
       <path id="DejaVuSans-42" d="M 1259 2228 
L 1259 519 
L 2272 519 
Q 2781 519 3026 730 
Q 3272 941 3272 1375 
Q 3272 1813 3026 2020 
Q 2781 2228 2272 2228 
L 1259 2228 
z
M 1259 4147 
L 1259 2741 
L 2194 2741 
Q 2656 2741 2882 2914 
Q 3109 3088 3109 3444 
Q 3109 3797 2882 3972 
Q 2656 4147 2194 4147 
L 1259 4147 
z
M 628 4666 
L 2241 4666 
Q 2963 4666 3353 4366 
Q 3744 4066 3744 3513 
Q 3744 3084 3544 2831 
Q 3344 2578 2956 2516 
Q 3422 2416 3680 2098 
Q 3938 1781 3938 1306 
Q 3938 681 3513 340 
Q 3088 0 2303 0 
L 628 0 
L 628 4666 
z
" transform="scale(0.015625)"/>
       <path id="DejaVuSans-7a" d="M 353 3500 
L 3084 3500 
L 3084 2975 
L 922 459 
L 3084 459 
L 3084 0 
L 275 0 
L 275 525 
L 2438 3041 
L 353 3041 
L 353 3500 
z
" transform="scale(0.015625)"/>
       <path id="DejaVuSans-66" d="M 2375 4863 
L 2375 4384 
L 1825 4384 
Q 1516 4384 1395 4259 
Q 1275 4134 1275 3809 
L 1275 3500 
L 2222 3500 
L 2222 3053 
L 1275 3053 
L 1275 0 
L 697 0 
L 697 3053 
L 147 3053 
L 147 3500 
L 697 3500 
L 697 3744 
Q 697 4328 969 4595 
Q 1241 4863 1831 4863 
L 2375 4863 
z
" transform="scale(0.015625)"/>
      </defs>
      <use xlink:href="#DejaVuSans-42"/>
      <use xlink:href="#DejaVuSans-61" transform="translate(68.603516 0)"/>
      <use xlink:href="#DejaVuSans-73" transform="translate(129.882812 0)"/>
      <use xlink:href="#DejaVuSans-65" transform="translate(181.982422 0)"/>
      <use xlink:href="#DejaVuSans-6c" transform="translate(243.505859 0)"/>
      <use xlink:href="#DejaVuSans-69" transform="translate(271.289062 0)"/>
      <use xlink:href="#DejaVuSans-6e" transform="translate(299.072266 0)"/>
      <use xlink:href="#DejaVuSans-65" transform="translate(362.451172 0)"/>
      <use xlink:href="#DejaVuSans-20" transform="translate(423.974609 0)"/>
      <use xlink:href="#DejaVuSans-28" transform="translate(455.761719 0)"/>
      <use xlink:href="#DejaVuSans-7a" transform="translate(494.775391 0)"/>
      <use xlink:href="#DejaVuSans-65" transform="translate(547.265625 0)"/>
      <use xlink:href="#DejaVuSans-72" transform="translate(608.789062 0)"/>
      <use xlink:href="#DejaVuSans-6f" transform="translate(647.652344 0)"/>
      <use xlink:href="#DejaVuSans-20" transform="translate(708.833984 0)"/>
      <use xlink:href="#DejaVuSans-66" transform="translate(740.621094 0)"/>
      <use xlink:href="#DejaVuSans-6c" transform="translate(775.826172 0)"/>
      <use xlink:href="#DejaVuSans-65" transform="translate(803.609375 0)"/>
      <use xlink:href="#DejaVuSans-78" transform="translate(863.382812 0)"/>
      <use xlink:href="#DejaVuSans-29" transform="translate(922.5625 0)"/>
     </g>
    </g>
   </g>
  </g>
 </g>
 <defs>
  <clipPath id="pd842207e96">
   <rect x="52.160938" y="22.318125" width="509.2" height="385.001296"/>
  </clipPath>
 </defs>
</svg>
